<svg viewBox="0 0 16 16" xmlns="http://www.w3.org/2000/svg"><path d="m0 4.63a4.62 4.62 0 0 1 4.63-4.63h6.74a4.62 4.62 0 0 1 4.63 4.63v6.74a4.62 4.62 0 0 1 -4.63 4.63h-6.74a4.62 4.62 0 0 1 -4.63-4.63zm1.45.12v6.5a3.3 3.3 0 0 0 3.3 3.3h6.5a3.3 3.3 0 0 0 3.3-3.3v-6.5a3.3 3.3 0 0 0 -3.3-3.3h-6.5a3.3 3.3 0 0 0 -3.3 3.3zm6.55 7.32a4.07 4.07 0 1 1 4.07-4.07 4.07 4.07 0 0 1 -4.07 4.07zm0-1.45a2.62 2.62 0 1 0 -2.62-2.62 2.62 2.62 0 0 0 2.62 2.62zm4.21-5.93a1 1 0 1 1 1-1 1 1 0 0 1 -1 1z" fill="#fff" fill-rule="evenodd"/></svg>