<svg viewBox="0 0 16 16" xmlns="http://www.w3.org/2000/svg"><path d="m14.37 5.16a9.27 9.27 0 0 1 -9.37 9.34 9.29 9.29 0 0 1 -5-1.5h.78a6.58 6.58 0 0 0 4.08-1.41 3.27 3.27 0 0 1 -3.07-2.2 3.22 3.22 0 0 0 1.49-.06 3.29 3.29 0 0 1 -2.64-3.22 4 4 0 0 0 1.49.37 3.28 3.28 0 0 1 -1-4.38 9.33 9.33 0 0 0 6.75 3.43 3.19 3.19 0 0 1 -.08-.75 3.28 3.28 0 0 1 5.67-2.25 6.45 6.45 0 0 0 2.09-.79 3.21 3.21 0 0 1 -1.45 1.81 6.45 6.45 0 0 0 1.89-.55 6.79 6.79 0 0 1 -1.64 1.7c.01.18.01.3.01.46z" fill="#fff" fill-rule="evenodd"/><path d="m0 0h16v16h-16z" fill="none"/></svg>