<?xml version="1.0" encoding="UTF-8"?>
<!DOCTYPE svg PUBLIC "-//W3C//DTD SVG 1.1//EN" "http://www.w3.org/Graphics/SVG/1.1/DTD/svg11.dtd">
<!-- Creator: CorelDRAW SE -->
<svg xmlns="http://www.w3.org/2000/svg" xml:space="preserve" width="100mm" height="100mm" version="1.1" style="shape-rendering:geometricPrecision; text-rendering:geometricPrecision; image-rendering:optimizeQuality; fill-rule:evenodd; clip-rule:evenodd"
viewBox="0 0 10000 10000"
 xmlns:xlink="http://www.w3.org/1999/xlink">
 <defs>
  <style type="text/css">
   <![CDATA[
    .fil1 {fill:#FF8000}
    .fil2 {fill:black;fill-rule:nonzero}
    .fil0 {fill:#FF8000;fill-rule:nonzero}
   ]]>
  </style>
 </defs>
 <g id="Warstwa_x0020_1">
  <metadata id="CorelCorpID_0Corel-Layer"/>
  <path class="fil0" d="M3549 1712l-1128 0 0 2 -305 0c-117,0 -223,47 -300,125 -77,77 -125,183 -125,300l0 870 850 0 0 -447 1008 0c-45,-106 -73,-232 -80,-368l0 -2 0 -3 0 -6 0 -9 0 0 -1 -7 0 -2 0 -5 0 -1 0 -6 0 0 0 -6 0 -2 0 -7 0 -8 0 -1 0 -6 0 -1 0 -5 0 -1 0 -5 0 -3 1 -6 0 -1c0,-9 0,-18 1,-26l0 0c7,-134 35,-259 79,-363zm5565 6338c28,0 60,-34 91,-89 48,-84 77,-205 77,-341 0,-136 -29,-256 -77,-340 -31,-55 -63,-89 -91,-89 -3,0 -7,1 -11,2l-5 2c-15,8 -30,21 -44,39 -11,12 -21,28 -31,46 -3,5 -6,11 -8,16l-1 2c-5,8 -9,17 -13,27 -30,70 -49,157 -54,254l0 4 0 1c0,3 0,7 0,10l0 1 0 4 -1 2 0 4 0 3 0 2 0 4 0 1 0 5 0 6 0 1 0 4 0 2 0 3 0 3 1 3 0 4 0 1 0 10 0 1 0 4c5,97 24,184 54,254 4,10 8,18 13,27l1 2c2,5 5,11 8,16 10,18 20,33 31,46 14,18 29,31 44,39l5 2c4,1 8,2 11,2zm386 76c-75,134 -181,226 -306,254l0 5 -30 0c-17,2 -33,3 -50,3 -16,0 -33,-1 -49,-3l-40 0 -1803 0 0 -2c-197,-9 -375,-93 -506,-224 -138,-138 -224,-329 -224,-539l0 -271c120,-11 234,-42 338,-90l0 361c0,116 48,223 125,300 78,77 184,125 301,125l305 0 0 1 1128 0c-44,-104 -73,-228 -80,-362l0 0c0,-9 -1,-18 -1,-27l0 0 0 -7 0 -2 0 -5 0 -1 0 -6 0 -1 0 -5 0 -2 0 -8 0 -7 0 -2 0 -5 0 -1 0 -6 0 -1 0 -5 0 -2 0 -7 0 0 0 -9 1 -6 0 -3 0 -1c6,-136 35,-263 79,-369l-1007 0 0 -446 -338 0c53,-114 86,-240 95,-371l1398 0c5,0 8,-2 11,-5 3,-3 5,-7 5,-11l0 -2963c0,-4 -2,-8 -5,-11 -3,-3 -6,-5 -11,-5l-7858 0c-4,0 -8,2 -11,5 -3,3 -5,7 -5,11l0 2963c0,4 2,8 5,11 3,3 7,5 11,5l1550 0c8,119 36,233 81,338l-1631 0c-97,0 -186,-40 -250,-104 -65,-64 -104,-153 -104,-250l0 -2963c0,-98 39,-186 104,-250 64,-65 153,-104 250,-104l374 0 0 -907c0,-211 86,-402 224,-540 131,-131 309,-215 506,-223l0 -3 170 0 1673 0c17,-2 33,-3 50,-3 16,0 33,1 49,3l31 0 0 6c124,27 230,119 306,253 74,132 120,311 120,506 0,194 -46,374 -120,506 -76,134 -182,225 -306,253l0 4 -20 0c-20,3 -40,5 -60,5 -21,0 -41,-2 -61,-5l-1034 0 0 145 3430 0 0 -561c0,-70 29,-134 75,-180 46,-46 109,-74 179,-74l404 0c70,0 133,28 179,74l0 0c46,47 75,110 75,180l0 561 1614 0c98,0 187,39 251,104 64,64 104,152 104,250l0 2963c0,97 -40,186 -104,250 -64,64 -153,104 -251,104l-817 0 0 140 1035 0c20,-3 40,-5 60,-5 21,0 41,2 61,5l19 0 0 4c125,28 231,120 306,253 75,133 121,312 121,506 0,195 -46,374 -121,506zm-5597 -773c-12,36 -33,68 -60,95l0 1c-46,46 -110,74 -179,74l-404 0c-69,0 -133,-29 -179,-75l0 1c-46,-46 -75,-110 -75,-180 0,-147 265,84 561,84l336 0zm2704 -4307l318 0 0 -519 -318 0 0 519zm-2541 -1249c-31,-55 -64,-88 -91,-88 -4,0 -8,0 -11,1l-5 3c-15,7 -30,20 -45,38 -10,13 -20,28 -30,46 -3,5 -6,11 -9,16l-1 2c-4,9 -8,18 -12,27 -30,70 -50,158 -54,254l0 4 -1 1c0,4 0,7 0,11l0 1 0 4 0 2 0 3 0 3 0 2 0 4 0 2 0 5 0 5 0 1 0 4 0 3 0 3 0 3 0 2 0 4 0 1 0 11 1 1 0 4c4,96 24,183 54,254 4,9 8,18 12,26l1 2c3,6 6,11 9,16 10,18 20,34 30,47 15,18 30,31 45,38l5 2c3,1 7,2 11,2 27,0 60,-34 91,-89 47,-84 77,-204 77,-340 0,-136 -30,-256 -77,-341z"/>
  <path class="fil1" d="M6399 5385l-2832 0c-183,0 -349,75 -470,196 -121,121 -196,288 -196,471l0 260c0,183 75,350 196,471 121,121 287,196 470,196l2832 0c183,0 350,-75 471,-196 121,-121 196,-288 196,-471l0 -260c0,-183 -75,-350 -196,-471 -121,-121 -288,-196 -471,-196zm-1678 797c0,41 -5,81 -16,119 -11,39 -26,75 -45,108 -20,34 -43,64 -71,92 -28,27 -58,51 -91,71 -34,19 -69,35 -108,45 -38,11 -79,17 -120,17 -41,0 -81,-6 -120,-17 -38,-10 -74,-26 -107,-45 -34,-20 -64,-44 -92,-71 -28,-28 -51,-58 -71,-92 -20,-33 -35,-69 -46,-108 -10,-38 -16,-78 -16,-119 0,-42 6,-82 16,-120 11,-39 26,-75 46,-108 20,-33 43,-64 71,-91 28,-28 58,-51 92,-71 33,-19 69,-35 107,-45 39,-11 79,-16 120,-16 41,0 82,5 120,16 39,10 74,26 108,45 33,20 63,43 91,71 28,27 51,58 71,91 19,33 34,69 45,108 11,38 16,78 16,120zm-173 0c0,-38 -8,-74 -22,-108 -15,-34 -35,-64 -60,-89 -24,-25 -54,-44 -88,-59 -34,-15 -70,-22 -108,-22 -39,0 -75,7 -108,22 -34,15 -63,34 -89,59 -25,25 -45,55 -59,89 -15,34 -22,70 -22,108 0,38 7,74 22,107 14,34 34,63 59,88 26,25 55,45 89,60 33,15 69,22 108,22 38,0 74,-7 108,-22 34,-15 64,-35 88,-60 25,-25 45,-54 60,-88 14,-33 22,-69 22,-107zm462 433l-174 0 0 -873 611 0 0 174 -437 0 0 175 262 0 0 175 -262 0 0 349zm701 0l-174 0 0 -873 611 0 0 174 -437 0 0 175 262 0 0 175 -262 0 0 349z"/>
  <path class="fil2" d="M4136 5177l-959 0 0 -1398 959 0 0 280 -679 0 0 280 459 0 0 280 -459 0 0 279 679 0 0 279zm1273 -141c-64,55 -137,98 -217,127 -80,30 -163,45 -249,45 -67,0 -131,-9 -192,-26 -61,-18 -119,-42 -172,-73 -53,-32 -102,-70 -146,-113 -44,-44 -82,-93 -113,-147 -32,-53 -56,-111 -73,-173 -17,-61 -26,-126 -26,-192 0,-66 9,-130 26,-191 17,-61 41,-118 73,-172 31,-53 69,-102 113,-146 44,-44 93,-81 146,-113 53,-31 111,-55 172,-72 61,-18 125,-26 192,-26 86,0 169,14 249,44 80,30 153,72 217,128l-146 243c-42,-43 -91,-76 -146,-101 -55,-24 -113,-36 -174,-36 -61,0 -119,11 -172,35 -54,23 -101,55 -141,95 -41,40 -72,87 -96,140 -23,54 -35,111 -35,172 0,62 12,120 35,174 24,54 55,101 96,141 40,40 87,72 141,96 53,23 111,35 172,35 35,0 69,-5 102,-13 33,-8 65,-20 95,-35l0 -398 269 0 0 552zm496 -977l0 560 279 0c39,0 75,-8 109,-22 33,-15 63,-35 88,-60 26,-25 46,-55 60,-89 15,-34 22,-71 22,-109 0,-38 -7,-75 -22,-109 -14,-34 -34,-64 -60,-89 -25,-25 -55,-45 -88,-60 -34,-14 -70,-22 -109,-22l-279 0zm0 1118l-280 0 0 -1398 559 0c52,0 101,7 149,20 47,14 91,33 133,57 41,24 79,54 113,88 34,34 63,72 88,113 24,42 43,86 56,134 13,47 20,97 20,148 0,48 -6,95 -18,140 -12,46 -29,89 -51,130 -23,41 -50,79 -83,113 -33,34 -69,64 -109,90l155 365 -298 0 -121 -281 -313 2 0 279z"/>
 </g>
</svg>
