<svg xmlns="http://www.w3.org/2000/svg" viewBox="0 0 64.8 96.3"><path d="M666,357.7c2.2-2.4,4.5-4.7,6.8-7s4.4-1.9,6.2,0,2.9,2.7,4.1,4.3a6.9,6.9,0,0,0,5.7,2.3c5.1-.2,10.1,0,15.1-.1,1.7,0,3,.2,3.4,2h7.9V353h-5.8c-1,0-2.1-.3-2.7,1s-1,.4-1.5.4h-17a3.3,3.3,0,0,1-2.6-1c-1.6-1.7-3.3-3.2-4.8-4.9a4.2,4.2,0,0,0-3.6-1.6,19.2,19.2,0,0,1-2.4,0,3.7,3.7,0,0,0-3.3,1.5l-7,6.9c-2.2,2.2-3.8,2.2-5.6-.3s-5.6-1.6-6.8-.3a4.7,4.7,0,0,0-.1,6.6c1.7,1.7,5.5,1.6,6.9-.3a3.1,3.1,0,0,1,3.2-1.6C663.7,359.7,664.9,358.9,666,357.7Zm-10.5,2.1a1.8,1.8,0,1,1-.2-3.6,2.2,2.2,0,0,1,2,1.8A1.9,1.9,0,0,1,655.5,359.8Z" transform="translate(-650.7 -327.4)"/><path d="M680.2,398a4.8,4.8,0,0,1,4-1.7h19.7c1.6,0,3.1.1,3.5,2,2.7-.1,5.2.1,7.8-.1v-6.1h-7c-.3,0-.8,0-.9.2s-2.3,1.1-3.6,1.1q-10.4.2-20.7,0a4.4,4.4,0,0,0-3.6,1.5c-2.1,2.3-4.4,4.5-6.8,6.7a2.9,2.9,0,0,0-.9,2.3c.1,1.8,0,3.6.1,5.3a3.5,3.5,0,0,1-1.7,3.4c-2,1.3-2.1,4.9-.5,6.6s4.6,2.1,6.8,0,1.8-4.9-.1-6.3a4.6,4.6,0,0,1-1.9-4.6v-2.6a4,4,0,0,1,1.4-3.5C677.2,400.9,678.8,399.5,680.2,398Zm-5.3,18a2.1,2.1,0,0,1-1.9,2.1,2,2,0,0,1-1.8-1.9,2.1,2.1,0,0,1,1.9-2C674,414.1,674.8,415,674.9,416Z" transform="translate(-650.7 -327.4)"/><path d="M708.2,382.3c-.3,0-.9.1-1,.4s-1.7,1-2.7,1H673.1a4.2,4.2,0,0,1-3.5-1.5,4,4,0,0,0-5.1-1.1,4.4,4.4,0,0,0-2.7,4.2,4.5,4.5,0,0,0,3.1,4.4,3.8,3.8,0,0,0,4.6-1,4.5,4.5,0,0,1,3.9-1.7h30.9c1.4,0,2.6.2,3.1,1.5h7.9c0-2.2.5-4.1-.3-6.2C712.7,382.3,710.5,382.2,708.2,382.3Zm-41.7,5a2.1,2.1,0,0,1-2-1.7,2,2,0,0,1,1.8-2.2,1.9,1.9,0,0,1,2.1,1.8A2.2,2.2,0,0,1,666.5,387.3Z" transform="translate(-650.7 -327.4)"/><path d="M708.2,372.6c-.3,0-.9.1-1,.4s-1.8,1-2.9,1c-4.6.1-9.3-.1-13.9.1a7.2,7.2,0,0,1-6.3-2.6c-1.4-1.7-3-3.2-4.7-5l2.1-1.8a5,5,0,0,0,.7-5.6,4.8,4.8,0,0,0-6-2,4.9,4.9,0,0,0-2,6.4c.6,1.1,2,1.7,2.5,2.8a9.7,9.7,0,0,0,1.8,3.5,49.1,49.1,0,0,1,5.1,5.1,5.5,5.5,0,0,0,4.8,2h15.8c1.2,0,2.5-.2,2.9,1.4a1.3,1.3,0,0,0,1,.6h6a1.2,1.2,0,0,0,1.3-1.2c0-1.6.4-3.3-.5-5Zm-30.1-9.3a1.8,1.8,0,0,1-1.6-1.9,1.7,1.7,0,0,1,1.9-1.9,1.9,1.9,0,0,1,1.7,1.9A2,2,0,0,1,678.1,363.3Z" transform="translate(-650.7 -327.4)"/><path d="M708.1,401.9c-.3,0-.9.1-1,.4s-1.5,1-2.4,1H693.4a3.8,3.8,0,0,0-2.9,1.2l-6.4,6.5a3.8,3.8,0,0,0-1.2,1.7,3.7,3.7,0,0,1-1.8,2.7,4.4,4.4,0,0,0-1.1,6.1,4.9,4.9,0,0,0,4.7,2.1,4.6,4.6,0,0,0,3.8-4.3,4.7,4.7,0,0,0-2-4.1c-1.3-1.2-1.3-1.5-.1-2.7s3.2-3.4,4.8-5a4.3,4.3,0,0,1,3.6-1.4h9.4c1.1,0,2.4-.2,2.9,1.4a1,1,0,0,0,.8.4,46.1,46.1,0,0,0,7.4-.2v-5.9Zm-22.3,17.2a1.6,1.6,0,0,1-1.3,1.7c-1.5.5-2-.8-2.8-1.8s1.3-2.2,2.7-1.9A1.9,1.9,0,0,1,685.8,419.1Z" transform="translate(-650.7 -327.4)"/><path d="M686.4,336.1l.7-.6c1.8-1.4,1.9-4.6.4-6.3a4.3,4.3,0,0,0-5.7-1.1c-2.5,1.7-3.2,3.6-1.9,6a12.5,12.5,0,0,0,1.5,1.9c.4.6,1.2,1.1,1.3,1.8a5.4,5.4,0,0,0,1.9,3c1.8,1.8,3.6,3.5,5.4,5.4a4,4,0,0,0,3.3,1.4c3.8-.1,7.5,0,11.3,0,1,0,2-.1,2.5,1.3a1.4,1.4,0,0,0,1.1.6c1.9.1,3.8,0,5.8,0s1.4-.5,1.4-1.5v-4.7h-3c-2.1.2-4.5-1-6.1,1.3-.2.2-.8.1-1.2.1H693.8a3.9,3.9,0,0,1-2.1-.8,72.7,72.7,0,0,1-5.6-5.5C685.2,337.5,685.4,337,686.4,336.1Zm-2-2c-1.4.3-1.9-.8-2.6-1.9s1-2.4,2.4-1.9a2.7,2.7,0,0,1,1.5,1.8C686,333.1,685.3,333.8,684.4,334.1Z" transform="translate(-650.7 -327.4)"/><path d="M708.1,362.9c-.3,0-.8.1-.9.3s-2.1,1.2-3.3,1.2h-4.5c-1.8.1-3.1-.1-4.4-1.7s-5.2-1.7-6.8.2a4.7,4.7,0,0,0,.8,6.6,4.3,4.3,0,0,0,6-.4,4.4,4.4,0,0,1,3.7-1.6h4.8c1.4,0,3-.6,3.8,1.2l.6.2h7.3v-6.1Zm-16.3,4.9a2.1,2.1,0,0,1-1.9-2,2,2,0,0,1,1.8-1.8,2,2,0,0,1,1.9,2A1.9,1.9,0,0,1,691.8,367.8Z" transform="translate(-650.7 -327.4)"/></svg>