<svg xmlns="http://www.w3.org/2000/svg" xmlns:xlink="http://www.w3.org/1999/xlink" x="0" y="0" enable-background="new 0 0 1000 1000" version="1.1" viewBox="0 0 1000 1000" xml:space="preserve"><g><path d="M500,75.2c234.2,0,424.8,190.5,424.8,424.8c0,234.2-190.5,424.8-424.8,424.8C265.8,924.8,75.2,734.2,75.2,500C75.2,265.8,265.8,75.2,500,75.2 M500,10C229.4,10,10,229.4,10,500s219.4,490,490,490s490-219.4,490-490S770.6,10,500,10L500,10z"/><path d="M440.2,719.9h122.1v120.7H440.2V719.9L440.2,719.9z"/><path d="M706,390.2c-4.6,15.6-11,30.3-19.1,44.2c-8.1,13.9-17.9,27-29.4,39.4c-11.5,12.4-24.1,24.4-37.8,35.8c-15.4,12.8-27.7,24.1-37,33.9c-9.3,9.8-15.7,18.3-18.9,25.5c-6.6,14-9.8,44.9-9.8,92.7H443.6c0-65.4,6.4-111.4,19.1-137.9c12.4-25.5,35.6-52.4,69.6-80.9c14.7-12.1,26.2-22.8,34.3-32.2c8.2-9.4,14.4-17.6,18.6-25c4.3-7.4,6.9-14.2,7.9-20.6c1-6.4,1.4-13,1.4-19.8c0-12.8-2.1-24.6-6.6-35.3c-4.3-10.8-10.7-20.2-18.8-28.1c-8.1-7.8-17.8-14-28.9-18.4c-11.1-4.5-23.5-6.6-37.3-6.6c-53.6,0-86.3,37.4-98.1,112.3H287.2c2.9-32,10.2-61.1,21.8-87.1c11.6-26,26.9-48.1,45.6-66.2c18.7-18.1,40.7-32.1,65.7-42c25-9.8,52.2-14.7,81.6-14.7c31.4,0,60,4.5,85.8,13.5c25.8,9,48,21.4,66.4,37.5c18.6,16,32.9,35.1,43.2,57.3s15.4,46.4,15.4,72.6C712.8,358.1,710.6,374.7,706,390.2z"/></g></svg>