<svg xmlns="http://www.w3.org/2000/svg" viewBox="0 0 1304.6 387.8"><defs><style>.a,.d{fill:none;stroke-linecap:round;stroke-linejoin:round;}.a,.b,.d{stroke:#000;}.a{stroke-width:0;}.c{fill:#010002;}</style></defs><path class="a" d="M481.1,264.6c0,.2.1.4.1.6h0" transform="translate(-30.7 -125.3)"/><path class="a" d="M482,264.9l-.8.3" transform="translate(-30.7 -125.3)"/><path class="a" d="M481.1,264.6c0,.2.1.4.1.6" transform="translate(-30.7 -125.3)"/><path class="a" d="M481.2,265.2h0l.8-.3" transform="translate(-30.7 -125.3)"/><path d="M467.5,513.1H447.4c-8.7-.1-13.9-5.2-13.9-13.9V451.2c.1-33.7.1-68.5-.2-102.8-.1-14.4,4.5-23.8,14.7-30.5a25.4,25.4,0,0,0,3.6-2.9,22.2,22.2,0,0,1,3.3-2.8c6.2-4.2,9.2-9,9.8-15.3.2-3,2.6-6.1,4.9-8.7a72.2,72.2,0,0,1,6.8-6.7l2.8-2.6-5-.3-12.2-.8-6.3-.3c-4.5-.3-9.1-.5-13.7-1s-9-2.5-10.7-5.4-1.6-6.5.2-11c2.6-6.7,7.1-10.9,13.5-12.9,15.2-4.6,31-5.1,44.7-5.2h0a5.2,5.2,0,0,1,2.4,1.1l.9.7c.1,0,.2.2.3.3v.4a7.1,7.1,0,0,0-1,1.4c-.7,1.1-1.4,2.3-2.5,2.7-6,2.3-7.9,7.6-8.8,11.8a7,7,0,0,0,.4,3.1l.3.9v.2c0-.1.1-.1.2-.2l1.3-.4c1.4-.4,2.9-.8,3.3-1.6,1.8-3.4,3.5-7,5-10.4s3.4-7.5,5.4-11.2l2.9-5.2c7.5-13.8,15.3-28,23.8-41.5,4.1-6.5,9.7-12.1,15.2-17.5l2.7-2.7c2.4-2.4,7-2.8,8.3-2.8,5.2-.3,10.3-.2,15.8-.2h6.1c-.2-8.8,5.9-10.3,11.8-11.1h1.5a141.3,141.3,0,0,1,18.4-1.6c41.7-.2,83.2-.2,123.5,0a150.6,150.6,0,0,1,19.1,1.6l1.3.2c6.1.8,11.6,2.6,11.4,11h6.1c5.4,0,10.5-.1,15.7.2,1.4.1,6.2.5,8.7,3.1,6.6,6.6,12.9,13.1,18.2,20.5,14,19.5,23.9,40.3,35.3,65.4.1.4.3.7.4,1.1a3.8,3.8,0,0,0,.9,1.8,19.1,19.1,0,0,0,3.6,1.3l1.1.3.3-.9a4.6,4.6,0,0,0,.6-2.6c-1.1-5.1-2.9-10.1-8.8-12.4-1.2-.5-1.9-1.8-2.6-3a8.6,8.6,0,0,0-1-1.6.3.3,0,0,1,0-.4.3.3,0,0,1,.3-.3l1.3-.6a8,8,0,0,1,3.3-.8l7.7.8c11.3,1.2,22.9,2.4,34.4,4.2,6.7,1.1,11.8,5.7,14.8,13.5q2.6,6.6,0,10.8c-2.3,3.7-7,4.8-10.5,5.2-7.5.7-15.2,1.1-22.6,1.5l-9.9.6-3.4.2-1.4.2,2.3,2.2a63.9,63.9,0,0,0,5.5,5.1c4.4,3.4,6.8,8,7.9,14.8a12.7,12.7,0,0,0,3.7,6.8c3.1,2.9,6.4,5.7,9.5,8.4s7.7,6.7,11.3,10.2a13.9,13.9,0,0,1,4.3,8.9c.9,29.6,1.4,53.9,1.5,76.3.1,19.3,0,38.8-.1,57.8-.1,9-.1,18-.2,27,0,12.1-4.5,16.6-16.3,16.6h-37c-11.1-.1-15.9-4.9-15.9-16.1v-7.4c-5.5,0-11.1.4-16.5.7-18.8,1-38.3,2.1-56.7-7.9-1.5,4.8-4.5,5.2-7.9,5.2H583.4c-3,0-6.3,0-7.2-5.2-19,10.1-38.3,9-58.8,7.8-4.8-.3-9.8-.6-14.8-.7v2.6q.1,3.1,0,6.3c-.1,9.4-5.1,14.6-14.2,14.6ZM489.7,243h0c-13.6.1-29.3.6-44.4,5.2-6.1,1.9-10.4,5.9-12.9,12.3-1.7,4.2-1.8,7.6-.3,10.1s6.6,4.5,10,4.9,9.1.7,13.6,1l6.4.3,12.2.8,6.1.4c.2,0,.3.2.4.4s0,.3-.1.5l-3.7,3.4a84,84,0,0,0-6.7,6.6c-2.1,2.5-4.4,5.3-4.7,8.1-.6,6.6-3.7,11.6-10.1,16a28.5,28.5,0,0,0-3.2,2.7,35.7,35.7,0,0,1-3.7,3.1c-10,6.4-14.4,15.6-14.3,29.6.3,34.3.3,69.1.2,102.8v47.9c0,8.2,4.7,12.9,12.9,12.9,12.7.1,26.1.1,41,0,8.6,0,13.1-4.7,13.2-13.6q.1-3.1,0-6.3V489a.5.5,0,0,1,.2-.4h.4c5.1.1,10.3.4,15.3.7,20.5,1.2,39.9,2.3,58.9-8h.4c.2.1.3.2.3.4.6,5,3.2,5,6.3,5H746.5c3.4,0,5.9-.3,7.1-5,0-.2.2-.3.3-.4h.4c18.4,10.1,37.9,9,56.7,8,5.6-.4,11.4-.7,17.1-.7h.4a.6.6,0,0,1,.1.4V497c0,10.7,4.3,15,14.9,15.1h37c11.3,0,15.3-4.1,15.3-15.6.1-9,.1-18,.2-27,.1-19,.2-38.5.1-57.8-.1-22.4-.6-46.7-1.5-76.3a13,13,0,0,0-4-8.2c-3.6-3.5-7.5-6.9-11.2-10.1s-6.5-5.6-9.6-8.5a14,14,0,0,1-4-7.3c-1-6.6-3.4-10.9-7.6-14.3a63.9,63.9,0,0,1-5.5-5.1l-3.1-3a.4.4,0,0,1-.1-.5c.1-.2.2-.3.4-.3l2.6-.2,3.4-.3,9.9-.6c7.4-.4,15-.8,22.5-1.5,3.3-.3,7.7-1.4,9.8-4.8s1.5-5.8-.1-9.9c-2.9-7.5-7.6-11.8-14.1-12.8-11.4-1.8-23.1-3-34.3-4.2l-7.7-.8a5.2,5.2,0,0,0-2.8.8l-.8.3.6,1.1c.7,1.1,1.3,2.2,2.1,2.5,6.4,2.6,8.4,8.1,9.5,13.2a5.7,5.7,0,0,1-.6,3.1,7.8,7.8,0,0,0-.5,1.4c-.1.1-.1.2-.3.3h-.4l-1.5-.5a13.4,13.4,0,0,1-3.8-1.4,4.1,4.1,0,0,1-1.4-2.3l-.3-1c-11.4-25.1-21.3-45.8-35.2-65.2-5.2-7.4-11.5-13.9-18.1-20.4-1.8-1.8-5.3-2.6-8-2.8-5.2-.3-10.3-.2-15.7-.2h-6.6l-.3-.2a.5.5,0,0,1-.2-.4c.4-7.5-3.7-9.6-10.5-10.4l-1.3-.2a150.6,150.6,0,0,0-19-1.6c-40.3-.2-81.8-.2-123.5,0a139.8,139.8,0,0,0-18.3,1.6h-1.5c-6,.8-11.3,2.1-10.9,10.5a.5.5,0,0,1-.2.4l-.3.2h-6.6c-5.5,0-10.6-.1-15.7.2-2.6.1-6,.8-7.7,2.5l-2.7,2.7c-5.4,5.4-11.1,10.9-15.1,17.3-8.5,13.5-16.2,27.7-23.8,41.5l-2.8,5.2c-2,3.6-3.7,7.4-5.4,11.1s-3.2,7.1-5,10.5c-.6,1.1-2.3,1.6-3.9,2.1l-1.3.4c-.2.1-.5-.1-.6-.3v-.2l-.3.2a.5.5,0,0,1-.6-.4l-.3-.9a7.4,7.4,0,0,1-.4-3.6c1-4.5,3-10,9.5-12.5a5.8,5.8,0,0,0,2-2.3l.6-1.1-.5-.3A3.7,3.7,0,0,0,489.7,243Z" transform="translate(-30.7 -125.3)"/><path d="M830.9,268.9H499.6l.2-.6a25,25,0,0,1,.7-2.6,26,26,0,0,1,1.7-5.4l9.3-19c6.2-12.5,12.6-25.5,18.2-38.5,4.1-9.4,9.7-13,20.7-13.3,13.9-.5,28.2-1.4,41.9-2.2,17.5-1.1,35.6-2.2,53.4-2.5,25.3-.3,50.9.8,75.7,1.8l19.7.7c13.7.6,27.5,1.6,40.9,2.6l8,.6c1.7.2,4.4,1.2,5.2,2.8,11.4,22.9,22.5,45.8,32.9,67.2a31.2,31.2,0,0,1,1.7,4.9l.9,2.8Zm-330-1H829.5l-.6-2.2a44.4,44.4,0,0,0-1.7-4.8c-10.4-21.3-21.5-44.3-32.9-67.1-.6-1.1-2.8-2.1-4.3-2.3l-8.1-.6c-13.3-1-27.2-2.1-40.8-2.6l-19.7-.7c-24.8-1-50.5-2.1-75.7-1.8-17.8.3-35.8,1.4-53.3,2.5-13.8.8-28,1.7-42,2.2-10.5.3-15.9,3.7-19.8,12.7-5.6,13-12,26-18.2,38.6-3.1,6.2-6.2,12.6-9.3,19a35.2,35.2,0,0,0-1.7,5.2A13.3,13.3,0,0,1,500.9,267.9Z" transform="translate(-30.7 -125.3)"/><path d="M625.8,396.7h0l-11.6-1c-8.8-.8-17.8-1.5-26.7-2.7-10.6-1.4-19.6-7-26.8-16.5-1.3-1.7-3.9-2.8-5.8-3.3-9.7-2.3-18.2-.4-25,5.8a15.3,15.3,0,0,1-12.9,3.9l-13.4-2c-12.6-1.8-25.7-3.7-38.4-6.3-7.5-1.6-12.8-4.9-15.7-9.9-4.5-7.6-2.8-17.5-.6-24.4a9.3,9.3,0,0,1,5-5.1,32.4,32.4,0,0,1,20.3-1.2c30.5,8.5,55.8,15.4,79.9,21.8,1.5.4,3.4-.1,5.2-.6l1.1-.2,4.4-1.4c2.6-.9,5.3-1.9,8.1-1.9,21.7-.4,45.1-.5,71.4-.3,12.1,0,17.1,5.2,17.4,17.7.1,4.9.1,8.6,0,12-.2,9.3-5.5,14.6-14.8,14.7-4.9.2-9.8.1-14.6.1h-6v.3a.5.5,0,0,1-.2.4Zm-78.7-25.5a33.5,33.5,0,0,1,8.1,1.1,11.9,11.9,0,0,1,6.3,3.6c7,9.3,15.8,14.7,26.2,16.1,8.8,1.2,17.8,1.9,26.6,2.7l11.1.9v-.3a.5.5,0,0,1,.5-.4h6.4c4.8,0,9.7.1,14.6-.1,8.8-.1,13.6-4.9,13.8-13.7.1-3.5.1-7.1,0-12-.3-12-4.9-16.7-16.4-16.7-26.3-.2-49.6-.1-71.4.3-2.6,0-5.1.9-7.8,1.8a32.2,32.2,0,0,1-4.4,1.4l-1.1.3c-2,.5-4,1.1-5.7.6-24.1-6.4-49.5-13.4-79.9-21.8a32.2,32.2,0,0,0-19.8,1.1,8.2,8.2,0,0,0-4.3,4.5c-2.2,6.7-3.8,16.3.4,23.6,2.8,4.8,7.9,7.9,15.1,9.4,12.7,2.6,25.8,4.5,38.4,6.3l13.3,2a14.1,14.1,0,0,0,12.1-3.6A25.9,25.9,0,0,1,547.1,371.2Z" transform="translate(-30.7 -125.3)"/><path d="M681.7,395.7c-7.4,0-12.8-5.4-13.1-13.2-.2-5.7-.2-11.4.1-17,.4-8.2,6.2-13.9,14.3-14s18.2-.2,27.1-.1h11.4a.5.5,0,0,1,.4.2h9.6c9,0,18.3-.1,27.5.1a18.5,18.5,0,0,1,8.8,2.3c3.6,2.2,7,2.6,11.4,1.4l13.4-3.8c20.9-6,42.6-12.1,64-17.4,4.8-1.2,10.2-.4,15.3.4l4.5.6c1.8.3,3.7,2.6,4.5,4.2,3.9,7.4,4.3,15.6,1.1,22.5a22,22,0,0,1-15.6,12.2c-16.5,3.8-33.6,6-50.2,8.1l-4,.5c-3.5.5-7.7-1.5-11.3-3.5a13.1,13.1,0,0,1-4.2-3.5c-1.5-1.7-2.4-2.8-6.5-2.6h-1.8c-7.2.4-18.2,1.1-22.7,7.3-8,11-21.2,13.1-30.5,13.7-18.4,1.2-37,1.4-53.4,1.5Zm17-43.3H683.1c-7.6.1-13,5.4-13.4,13.1-.3,5.5-.3,11.2-.1,16.9.3,7.2,5.2,12.2,12.1,12.2h.1c16.4-.1,35-.3,53.4-1.5,14.4-.9,23.8-5.1,29.7-13.3,4.8-6.6,16-7.2,23.4-7.7h1.8v0c4.6-.3,5.8,1.1,7.3,2.9a11.8,11.8,0,0,0,4,3.4c3.5,1.8,7.4,3.7,10.7,3.3l4-.5c16.5-2.1,33.6-4.3,50.1-8a21.4,21.4,0,0,0,14.9-11.8c3.1-6.5,2.7-14.4-1.1-21.6-.8-1.6-2.5-3.4-3.8-3.6l-4.4-.6c-5.1-.8-10.3-1.6-14.9-.5-21.5,5.4-43.1,11.5-64,17.4l-13.5,3.9a14.4,14.4,0,0,1-12.2-1.5,16.2,16.2,0,0,0-8.3-2.2c-9.1-.2-18.4-.1-27.4-.1H698.7Z" transform="translate(-30.7 -125.3)"/><path d="M656.9,476.2l-18.9-.9-58.8-3a91.5,91.5,0,0,1-14.9-2.1h0c-3.3-.7-5.6-2.3-6.6-4.5a6.7,6.7,0,0,1,.6-6.1A154.6,154.6,0,0,1,576,434.5c2.5-2.9,8.2-3.5,13.3-3.8a1183.2,1183.2,0,0,1,151.9-.2c9.9.6,16.7,4.5,21.4,12.3l3.4,5.3a64.7,64.7,0,0,1,5.5,9.1c1.9,3.7,2.2,6.8,1,9s-3.8,3.7-7.7,4.2c-13.6,2-24.1,3-33.8,3.5-16.8.7-33.6,1.2-51.4,1.7Zm-92.3-7a87.9,87.9,0,0,0,14.7,2.1l58.8,3,18.8.9,22.7-.6c17.8-.5,34.5-1,51.4-1.7,9.7-.5,20.1-1.5,33.7-3.5q5.4-.7,6.9-3.6c1.1-2,.7-4.7-1-8.2a82.4,82.4,0,0,0-5.4-9c-1.2-1.7-2.4-3.5-3.5-5.3-4.5-7.5-11-11.3-20.6-11.8a1180,1180,0,0,0-151.7.2c-3.8.2-10.2.7-12.7,3.5a153.9,153.9,0,0,0-17.5,24.9,5.5,5.5,0,0,0-.6,5.2c.8,1.8,3,3.3,6,3.9Z" transform="translate(-30.7 -125.3)"/><path d="M506.1,469.4a82.4,82.4,0,0,1-14.8-1.4l-12.1-2-2.7-.5c-7-1.1-11.2-5.3-12.1-12.1-1.9-13.2-3.4-25.3-4.7-37h0a63,63,0,0,1-.1-8.7v-4.1a.5.5,0,0,1,.4-.5c7.5-2.2,12.6-.4,15.7,5.5s9.8,10.9,19.6,12.1c13.9,1.8,27.9,4,41.5,6.1l16.3,2.6,2.2.4,2.2.4c1.6.2,2.6.8,3,1.7s.3,1.9-.4,3.2l-.5.9c-3.9,7.1-8.1,14.4-12.4,21.5-.9,1.4-2.7,2.2-4.2,2.9l-1,.5A82.6,82.6,0,0,1,506.1,469.4Zm-45.4-53.2c1.3,11.8,2.8,23.9,4.7,37,.8,6.4,4.7,10.2,11.3,11.3l2.7.5,12,2c17.1,3.2,34,.8,50.2-7l.9-.5c1.6-.7,3.1-1.4,3.8-2.5,4.4-7.1,8.5-14.4,12.5-21.5l.5-.9a2.3,2.3,0,0,0,.3-2.2c-.3-.8-1.4-1.1-2.3-1.2l-2.1-.4-2.3-.5-16.3-2.5c-13.5-2.1-27.6-4.3-41.4-6.1-10.2-1.3-16.5-5.2-20.4-12.7-2.8-5.3-7.3-6.9-14.2-5.1v3.9a58.5,58.5,0,0,0,.1,8.4Z" transform="translate(-30.7 -125.3)"/><path d="M828.1,469.3a75.5,75.5,0,0,1-35.6-8.4,22.2,22.2,0,0,1-7.4-6.6c-3.1-4.6-5.8-9.6-8.5-14.4l-.8-1.5h0c-1.9-3.5-2.6-5.3-2-6.6s2.5-1.8,6.7-2.4l13.2-1.8,22.4-3.2c8.9-1.4,20-3.1,30.4-5.4,2.5-.6,4.8-2.5,7.1-4.4l1-.9a17.5,17.5,0,0,0,3.8-5c3.3-5.9,8.4-7.7,16.1-5.6a.5.5,0,0,1,.4.5c-.1,15.7-.8,34.1-5.5,52-1.3,5-4.5,8.2-9.4,9.3C850,467.3,839.2,469.3,828.1,469.3Zm-51.4-31.4.8,1.5a150.8,150.8,0,0,0,8.5,14.4,19.9,19.9,0,0,0,7,6.2c22.9,12,46.6,8.7,66.7,4a11.1,11.1,0,0,0,8.7-8.6c4.7-17.7,5.4-35.9,5.5-51.5-7.1-1.8-11.6-.1-14.6,5.3a17.6,17.6,0,0,1-4,5.3l-1.1.9c-2.3,1.9-4.7,4-7.5,4.6-10.5,2.3-21.5,4-30.5,5.4l-22.3,3.2-13.2,1.8c-3.6.6-5.5,1-6,1.9s.3,2.6,2,5.6Z" transform="translate(-30.7 -125.3)"/><path d="M646.6,393h-1l-13.6-.3c-10.5-.2-21.2-.3-31.8-1.4-7.9-.8-15.6-4-23.1-7.1h-.2c-6.8-2.9-12.7-17.2-11.3-24.1.3-1.8,2.3-3.7,3.9-4.4a18.5,18.5,0,0,1,7.5-1.5h32.4v-.7l.2-.3.3-.2,10.8.5c8.4.3,17.1.6,25.6,1.1s9.1,2.3,10.4,9.4a89.4,89.4,0,0,1,1.6,17.4c0,4.2-1,7.2-2.9,9.1S650.7,393,646.6,393Zm-69.3-9.8h.2c7.4,3.1,15.1,6.4,22.8,7.1,10.5,1.1,21.3,1.2,31.7,1.4l13.6.3c4.4.2,7.2-.6,9.1-2.4s2.6-4.4,2.6-8.4a88.8,88.8,0,0,0-1.6-17.2c-1.2-6.7-2.7-8-9.4-8.5-8.6-.5-17.2-.8-25.6-1.1l-10.3-.4v.6a.5.5,0,0,1-.5.5H577a17.9,17.9,0,0,0-7.1,1.4c-1.3.6-3.1,2.3-3.3,3.7-1.5,7,4.9,20.5,10.7,23Z" transform="translate(-30.7 -125.3)"/><path d="M683.5,393.1c-7.7,0-11.3-3.4-11.4-10.5s.9-14,2-20.8v-.5c.6-4.2,3.8-6.5,9.4-6.8l8.5-.3c10.3-.5,20.9-1,31.4-1s19.3.3,32.4,1.3c4.1.2,6.4,1.1,7.7,2.7s1.4,5,.6,9.1c-2,11.3-8.3,18.2-20.6,22.2-10.1,3.3-20.4,3.7-30.4,4.1L703,393H683.5ZM725,354.2h-1.5c-10.5,0-21.1.5-31.4,1l-8.5.3c-5.1.3-7.9,2.2-8.5,6v.4c-1.1,6.8-2.2,13.8-2,20.7s3.4,9.6,10.9,9.5h18.9l10.3-.4c9.9-.4,20.2-.8,30.1-4,11.9-3.9,18-10.5,20-21.5.8-4.5.6-6.8-.5-8.3s-3.2-2.1-6.9-2.4h0C743.5,354.6,733.9,354.2,725,354.2Z" transform="translate(-30.7 -125.3)"/><path d="M656,472l-19-1-64.3-3.7h0c-5.5-.3-9.4-1.1-10.6-3.3s.7-5.9,3.9-10.9h.1c11.4-17.4,11.7-17.5,32.2-18.7,44.7-2.6,90.5-2.5,139.9.1,11,.6,17.9,4.6,22.4,12.9,1.1,2,2.3,3.9,3.5,5.8s2.7,4.3,3.9,6.6,1,3.3.4,4.5-1.5,1.9-4.1,2.2l-11.6,1.1c-9.1,1-18.4,2-27.7,2.4-13.5.7-27.4,1-43.5,1.4Zm-83.2-5.7L637,470l19,1,25.5-.7c16-.4,29.9-.7,43.5-1.4,9.2-.4,18.5-1.4,27.6-2.4l11.6-1.1c1.7-.2,2.8-.8,3.3-1.7a3.5,3.5,0,0,0-.4-3.5,69.1,69.1,0,0,0-3.8-6.5c-1.2-1.9-2.5-3.9-3.6-5.9-4.3-8-10.9-11.8-21.6-12.4-49.3-2.6-95-2.7-139.7-.1-20.2,1.1-20.2,1.1-31.4,18.2v.2c-3,4.5-4.8,7.9-3.9,9.8s3.7,2.4,9.8,2.8Z" transform="translate(-30.7 -125.3)"/><path d="M506.4,465.2a73.7,73.7,0,0,1-13.2-1.2l-9.3-1.6-7.4-1.2a8.9,8.9,0,0,1-7.6-7.1c-3.8-14.8-4.9-29.9-5.3-47.9,0-.2.1-.3.3-.4a.3.3,0,0,1,.4,0l2.1.9,3.9,1.9a2.7,2.7,0,0,1,1.2,1.4c5.5,11.4,15.9,14.2,26.4,15.5,12.7,1.6,25.6,3.6,38,5.6l15.4,2.3,2.4.5,1.6.3c.2,0,.3.1.4.3v.4c-1.1,1.8-2.1,3.6-3.1,5.4-2.8,4.8-5.4,9.4-8.3,13.8-.8,1.4-2.6,2.2-4.2,3l-.4.2C528.4,462.6,517.5,465.2,506.4,465.2ZM464.6,407c.5,17.6,1.5,32.4,5.2,46.8a8.1,8.1,0,0,0,6.8,6.4l7.4,1.2,9.4,1.6c15.4,2.9,30.4.7,45.8-6.6l.5-.2c1.4-.7,3.1-1.5,3.8-2.6,2.8-4.5,5.4-9,8.2-13.8l2.7-4.8-.9-.2-2.3-.4L535.7,432c-12.4-1.9-25.2-3.9-37.9-5.5-10.8-1.3-21.5-4.2-27.2-16.1a2.3,2.3,0,0,0-.7-.9l-4-1.9Z" transform="translate(-30.7 -125.3)"/><path d="M827.7,465a67.7,67.7,0,0,1-31.4-7.1,24.6,24.6,0,0,1-8.4-7.4,85.2,85.2,0,0,1-6.4-10.6c-.9-1.7-1.9-3.4-2.9-5.1a.4.4,0,0,1,0-.5c.1-.2.2-.3.4-.3l7.7-1.1c5.6-.8,10.9-1.5,16.3-2.4l13.3-2.1c8.7-1.5,17.8-3,26.7-4s13.9-5,18.9-13l.2-.4c1.5-2.6,3.4-5.7,9.3-3.5.2,0,.4.3.4.5l-1.7,12.4c-1.4,10.5-2.8,21.3-4.2,31.9-.7,5.1-3.7,8.1-9.2,9.2C847.6,463.3,837.8,465,827.7,465Zm-47.9-30.1c.9,1.5,1.7,3,2.5,4.5a88.7,88.7,0,0,0,6.4,10.5,22.8,22.8,0,0,0,8.1,7.1c20.1,10.3,41.3,7.2,59.7,3.5,5.1-1,7.8-3.7,8.4-8.3,1.4-10.7,2.8-21.5,4.2-31.9l1.6-12c-4.8-1.7-6.3.8-7.7,3.2l-.3.4c-5.1,8.3-11.1,12.5-19.6,13.5s-17.9,2.5-26.7,4l-13.2,2.1-16.4,2.4Z" transform="translate(-30.7 -125.3)"/><path d="M537.1,367.4a.5.5,0,0,1-.5-.3l-9.7-17.7a.5.5,0,0,1,.2-.7.7.7,0,0,1,.7.2l9.7,17.7c.1.3.1.6-.2.7Z" transform="translate(-30.7 -125.3)"/><path d="M536.1,374.7H536a.4.4,0,0,1-.4-.6l1-7.3c0-.3.3-.5.5-.4a.5.5,0,0,1,.5.5l-1.1,7.4A.4.4,0,0,1,536.1,374.7Z" transform="translate(-30.7 -125.3)"/><path d="M791.8,366.8h-.2a.6.6,0,0,1-.3-.7l5.8-15.6a.5.5,0,1,1,1,.4l-5.8,15.6A.5.5,0,0,1,791.8,366.8Z" transform="translate(-30.7 -125.3)"/><path d="M793.4,373.3a.5.5,0,0,1-.5-.4l-1.6-6.5a.6.6,0,0,1,.4-.6.5.5,0,0,1,.6.4l1.5,6.5c.1.2-.1.5-.3.6Z" transform="translate(-30.7 -125.3)"/><path d="M960.1,278.9H960l-154.8-.7a.5.5,0,0,1-.5-.5.5.5,0,0,1,.5-.5h0l154.9.7c.2.1.5.3.5.6S960.3,278.9,960.1,278.9Z" transform="translate(-30.7 -125.3)"/><circle cx="772.8" cy="153.2" r="3.3"/><path d="M803.5,282.2a3.8,3.8,0,1,1,0-7.5,3.8,3.8,0,0,1,0,7.5Zm0-6.5a2.8,2.8,0,1,0,2.7,2.7A2.7,2.7,0,0,0,803.5,275.7Z" transform="translate(-30.7 -125.3)"/><ellipse cx="1007.7" cy="66.7" rx="4.4" ry="4.6"/><path d="M1038.4,197a4.8,4.8,0,0,1-4.7-5,4.9,4.9,0,0,1,4.7-5,5,5,0,0,1,4.8,5A4.9,4.9,0,0,1,1038.4,197Zm0-9.2a4.3,4.3,0,1,0,4,4.2A4.1,4.1,0,0,0,1038.4,187.8Z" transform="translate(-30.7 -125.3)"/><path d="M1334.7,218.3H1038.4a.6.6,0,0,1-.6-.6V152.9a.6.6,0,0,1,.6-.6h296.3a.6.6,0,0,1,.6.6v64.8A.6.6,0,0,1,1334.7,218.3ZM1039,217.1h295.2V153.4H1039Z" transform="translate(-30.7 -125.3)"/><path class="b" d="M1144.9,184.5a15.6,15.6,0,0,1-6.4,1.1c-6.9,0-12-4.3-12-12.2s5.1-12.8,12.7-12.8a13,13,0,0,1,5.7,1.1l-.7,2.6a11.2,11.2,0,0,0-4.9-1c-5.7,0-9.5,3.6-9.5,10s3.4,9.7,9.3,9.7a12.5,12.5,0,0,0,5.1-1Z" transform="translate(-30.7 -125.3)"/><path class="b" d="M1151.9,161v10.2h11.8V161h3.1v24.3h-3.1V173.9h-11.8v11.4h-3.1V161Z" transform="translate(-30.7 -125.3)"/><path class="b" d="M1175.4,161v24.3h-3.1V161Z" transform="translate(-30.7 -125.3)"/><path class="b" d="M1180.9,161.3a42.2,42.2,0,0,1,6-.5c3.1,0,5.4.8,6.8,2.1a6.5,6.5,0,0,1,2.1,5,7.1,7.1,0,0,1-1.8,5.2c-1.7,1.8-4.4,2.7-7.5,2.7l-2.5-.2v9.7h-3.1ZM1184,173a9.8,9.8,0,0,0,2.6.3c3.8,0,6.1-1.9,6.1-5.2s-2.3-4.8-5.7-4.8a10.5,10.5,0,0,0-3,.3Z" transform="translate(-30.7 -125.3)"/><path class="b" d="M1204.7,163.7h-7.4V161h17.9v2.7h-7.4v21.6h-3.1Z" transform="translate(-30.7 -125.3)"/><path class="b" d="M1221.1,161v14.4c0,5.4,2.4,7.7,5.6,7.7s5.9-2.4,5.9-7.7V161h3.2v14.2c0,7.4-3.9,10.5-9.2,10.5s-8.7-2.9-8.7-10.4V161Z" transform="translate(-30.7 -125.3)"/><path class="b" d="M1241.2,185.3V161h3.4l7.8,12.3a72,72,0,0,1,4.4,7.9h0c-.2-3.2-.3-6.2-.3-9.9V161h2.9v24.3h-3.1l-7.7-12.3c-1.7-2.7-3.3-5.5-4.6-8.1h-.1c.2,3.1.3,6,.3,10v10.4Z" transform="translate(-30.7 -125.3)"/><path class="b" d="M1268,161v24.3h-3.1V161Z" transform="translate(-30.7 -125.3)"/><path class="b" d="M1273.5,185.3V161h3.4l7.8,12.3a72,72,0,0,1,4.4,7.9h0c-.2-3.2-.3-6.2-.3-9.9V161h2.9v24.3h-3.1l-7.7-12.3a75.1,75.1,0,0,1-4.6-8.1h-.1c.2,3.1.3,6,.3,10v10.4Z" transform="translate(-30.7 -125.3)"/><path class="b" d="M1315.7,184.2a23.1,23.1,0,0,1-7.5,1.3c-3.7,0-6.7-.9-9.1-3.2a12.7,12.7,0,0,1-3.3-9c0-7.2,5-12.5,13.1-12.5a15.7,15.7,0,0,1,6.1,1.1l-.8,2.5a14,14,0,0,0-5.4-1c-5.9,0-9.7,3.7-9.7,9.7s3.7,9.8,9.3,9.8a9.7,9.7,0,0,0,4.2-.6v-7.2h-4.9v-2.6h8Z" transform="translate(-30.7 -125.3)"/><path class="b" d="M1180.9,202.4c-.2-3.4-.4-7.4-.4-10.5h-.1c-.8,2.9-1.8,5.9-3,9.3l-4.3,11.7h-2.4l-3.9-11.5c-1.2-3.5-2.1-6.6-2.8-9.5h-.1c-.1,3.1-.2,7.1-.5,10.8l-.6,10.4h-3l1.7-24.3h4l4.1,11.7c1,3,1.9,5.7,2.5,8.2h.1c.6-2.4,1.5-5.1,2.5-8.2l4.4-11.7h4l1.5,24.3h-3.1Z" transform="translate(-30.7 -125.3)"/><path class="b" d="M1210.1,200.7c0,8.3-5,12.8-11.2,12.8s-10.9-5-10.9-12.3,4.7-12.8,11.2-12.8S1210.1,193.5,1210.1,200.7Zm-18.8.4c0,5.2,2.8,9.8,7.7,9.8s7.8-4.6,7.8-10.1-2.5-9.8-7.7-9.8S1191.3,195.8,1191.3,201.1Z" transform="translate(-30.7 -125.3)"/><path class="b" d="M1217.9,191.5h-7.4v-2.7h18v2.7h-7.4v21.6h-3.2Z" transform="translate(-30.7 -125.3)"/><path class="b" d="M1243.8,201.7h-9.5v8.7h10.5v2.7h-13.6V188.8h13.1v2.6h-10v7.7h9.5Z" transform="translate(-30.7 -125.3)"/><path class="b" d="M1252,188.8v14.4c0,5.4,2.5,7.7,5.7,7.7s5.9-2.4,5.9-7.7V188.8h3.2V203c0,7.4-4,10.5-9.2,10.5s-8.7-2.9-8.7-10.4V188.8Z" transform="translate(-30.7 -125.3)"/><path class="b" d="M1272.2,189.1a34.5,34.5,0,0,1,6-.5c3.4,0,5.5.6,7,2a5.8,5.8,0,0,1,1.9,4.6,6.4,6.4,0,0,1-4.5,6.2h0c1.8.7,3,2.4,3.5,4.9a41.3,41.3,0,0,0,1.9,6.7h-3.2a31.3,31.3,0,0,1-1.7-5.8c-.7-3.4-2-4.6-4.8-4.7h-3v10.5h-3.1Zm3.1,11.1h3.2c3.4,0,5.5-1.9,5.5-4.6s-2.3-4.5-5.6-4.6a15.6,15.6,0,0,0-3.1.3Z" transform="translate(-30.7 -125.3)"/><path class="c" d="M1082.2,188.8v.2a1.4,1.4,0,0,0,1.4,1.3,1.4,1.4,0,1,0,0-2.7h-.2l-5.5-3.6Z" transform="translate(-30.7 -125.3)"/><path d="M1083.6,190.8a1.9,1.9,0,0,1-1.9-1.7h0l-6.7-7.6,8.5,5.7h.1a1.9,1.9,0,1,1,0,3.7Zm-2.7-4.3,1.7,2.1v.4a.9.9,0,0,0,.9.8.9.9,0,1,0,0-1.7h-.4Z" transform="translate(-30.7 -125.3)"/><path class="c" d="M1065.9,171.6l.7-.5a24.3,24.3,0,0,1,13.8-5.7h1v5.5h1.5v-5.5h1a25.3,25.3,0,0,1,15.3,6l.7.6-3.8,3.5,1.1,1,3.7-3.4.6.7a20.5,20.5,0,0,1,4.8,9.8l.2.9h-5.2v1.4h5.3v1a.6.6,0,0,1,.1.4,20.5,20.5,0,0,1-3.3,10.9l-.5.9-4.2-3.7-1,1,3.5,3.2h2.6a21.1,21.1,0,0,0,3.9-12.3c0-12.6-11.2-22.9-25-22.9s-25,10.3-25,22.9a21,21,0,0,0,4,12.3h2.6l3.7-2.9-1.1-1-4.3,3.4-.5-.8a21.1,21.1,0,0,1-3.3-11v-1.4h5.1v-1.4h-5l.2-.9a21.3,21.3,0,0,1,5-10.2l.6-.6,3.7,3.3h.2l.9-.8Z" transform="translate(-30.7 -125.3)"/><path d="M1064.5,200h-3l-.2-.2a21.3,21.3,0,0,1-4.1-12.6c0-12.9,11.5-23.4,25.5-23.4s25.5,10.5,25.5,23.4a21.9,21.9,0,0,1-4,12.6l-.2.2h-3l-4.1-3.7,1.8-1.7,4.1,3.7.2-.4a19.9,19.9,0,0,0,3.2-10.7.8.8,0,0,0-.1-.4v-.5h-5.3v-2.4h5.1v-.3a20,20,0,0,0-4.6-9.6l-.3-.3-3.7,3.3-1.8-1.6,3.7-3.5-.2-.2a25.3,25.3,0,0,0-15.1-5.9h-.4v5.5h-2.5v-5.4h-.4a24,24,0,0,0-13.6,5.6l-.2.2,3.6,3.3-1.8,1.7-3.6-3.3-.3.3a20.6,20.6,0,0,0-4.9,9.9v.3h4.9v2.4h-5.1v.9a19.9,19.9,0,0,0,3.2,10.7l.2.4,4.3-3.4,1.7,1.8Zm-1.1-1h.7l3.1-2.4-.3-.4Zm-1.4,0h0l-.3-.6a20.7,20.7,0,0,1-3.4-11.2v-1.9h5.1v-.4h-5.1l.3-1.5a22.1,22.1,0,0,1,5.1-10.4l.8-.9a21.7,21.7,0,0,0-6.4,15.1A20.2,20.2,0,0,0,1062,199Zm41.4,0h.1a20.1,20.1,0,0,0,3.7-11.8,21,21,0,0,0-6.2-14.9l.9,1a22.2,22.2,0,0,1,4.9,10.1l.3,1.5h-5.3v.4h5.3v1.5c.1.1.1.2.1.4a21.5,21.5,0,0,1-3.3,11.2Zm-2,0h.7l-3.4-3.1-.3.4Zm-4.5-23.6.3.3,3.8-3.5-.4-.3Zm-32.1-3.4,3.7,3.3.3-.3-3.7-3.4,1.2-.9a25.2,25.2,0,0,1,6.9-4.1A23.8,23.8,0,0,0,1064.8,172Zm18.3-7.2h.8a26,26,0,0,1,15.7,6.2l1,.9A25.5,25.5,0,0,0,1083.1,164.8Zm-1.2,5.5h.5v-5.5h-.5Z" transform="translate(-30.7 -125.3)"/><rect class="c" x="1041.3" y="79.5" width="21.6" height="1.5"/><path d="M1094,206.8h-22.5v-2.5H1094Zm-21.5-1H1093v-.5h-20.5Z" transform="translate(-30.7 -125.3)"/><path class="b" d="M47.6,137a44.7,44.7,0,0,1,6-.4c3.1,0,5.4.7,6.8,2a6.3,6.3,0,0,1,2.2,5.1,6.9,6.9,0,0,1-1.9,5.1,10.1,10.1,0,0,1-7.4,2.7,9.4,9.4,0,0,1-2.5-.2V161H47.6Zm3.2,11.7a8.8,8.8,0,0,0,2.6.3c3.7,0,6-1.8,6-5.2s-2.2-4.7-5.7-4.7l-2.9.2Z" transform="translate(-30.7 -125.3)"/><path class="b" d="M66.8,137.1a34.5,34.5,0,0,1,6-.5c3.3,0,5.5.6,7,2a5.9,5.9,0,0,1,1.9,4.6,6.4,6.4,0,0,1-4.6,6.2h0c1.9.6,3,2.3,3.6,4.9a39.1,39.1,0,0,0,1.9,6.6H79.3a34.4,34.4,0,0,1-1.6-5.8c-.7-3.3-2-4.6-4.8-4.7h-3V161H66.8Zm3.1,11h3.2c3.4,0,5.5-1.8,5.5-4.6S76.3,139,73,139a10.4,10.4,0,0,0-3.1.3Z" transform="translate(-30.7 -125.3)"/><path class="b" d="M107,148.6c0,8.4-5.1,12.8-11.3,12.8s-10.9-5-10.9-12.3,4.8-12.7,11.3-12.7S107,141.4,107,148.6Zm-18.8.4c0,5.2,2.8,9.9,7.7,9.9s7.8-4.6,7.8-10.1-2.5-9.9-7.8-9.9S88.2,143.7,88.2,149Z" transform="translate(-30.7 -125.3)"/><path class="b" d="M129.5,159.9a21.9,21.9,0,0,1-7.4,1.4A11.4,11.4,0,0,1,109.6,149c.1-7.2,5-12.5,13.2-12.5a14.7,14.7,0,0,1,6,1.1l-.7,2.6a12.5,12.5,0,0,0-5.4-1.1c-5.9,0-9.8,3.7-9.8,9.8s3.7,9.8,9.4,9.8a9.9,9.9,0,0,0,4.2-.7v-7.2h-5v-2.5h8Z" transform="translate(-30.7 -125.3)"/><path class="b" d="M134.3,137.1a35.4,35.4,0,0,1,6-.5c3.4,0,5.5.6,7,2a5.7,5.7,0,0,1,2,4.6,6.5,6.5,0,0,1-4.6,6.2h0c1.9.6,3,2.3,3.5,4.9a39.1,39.1,0,0,0,1.9,6.6h-3.2a26.6,26.6,0,0,1-1.6-5.8c-.8-3.3-2.1-4.6-4.9-4.7h-3V161h-3.1Zm3.1,11h3.3c3.3,0,5.4-1.8,5.4-4.6s-2.2-4.5-5.6-4.5a10.9,10.9,0,0,0-3.1.3Z" transform="translate(-30.7 -125.3)"/><path class="b" d="M157.8,153.4l-2.5,7.6H152l8.3-24.2h3.8l8.2,24.2H169l-2.6-7.6Zm7.9-2.5-2.3-6.9c-.6-1.6-.9-3.1-1.3-4.5H162a36,36,0,0,1-1.2,4.4l-2.4,7Z" transform="translate(-30.7 -125.3)"/><path class="b" d="M196.2,150.4c-.2-3.4-.4-7.5-.4-10.5h-.1c-.8,2.8-1.8,5.9-3,9.2l-4.3,11.8H186l-3.9-11.6a95.2,95.2,0,0,1-2.8-9.4h-.1c-.1,3-.2,7.1-.5,10.7l-.6,10.4h-3l1.7-24.2h4l4.1,11.7c1,3,1.9,5.6,2.5,8.2h.1c.6-2.5,1.5-5.2,2.5-8.2l4.4-11.7h4l1.5,24.2h-3.1Z" transform="translate(-30.7 -125.3)"/><path class="b" d="M208.3,153.4l-2.6,7.6h-3.2l8.2-24.2h3.8l8.3,24.2h-3.3l-2.6-7.6Zm7.9-2.5-2.4-6.9q-.7-2.4-1.2-4.5h-.1c-.4,1.5-.7,2.9-1.2,4.4l-2.4,7Z" transform="translate(-30.7 -125.3)"/><path class="b" d="M228.2,139.4h-7.4v-2.6h18v2.6h-7.4V161h-3.2Z" transform="translate(-30.7 -125.3)"/><path class="b" d="M244.6,136.8V161h-3.1V136.8Z" transform="translate(-30.7 -125.3)"/><path class="b" d="M270.8,148.6c0,8.4-5,12.8-11.2,12.8s-10.9-5-10.9-12.3,4.7-12.7,11.2-12.7S270.8,141.4,270.8,148.6ZM252,149c0,5.2,2.8,9.9,7.7,9.9s7.8-4.6,7.8-10.1-2.5-9.9-7.7-9.9S252,143.7,252,149Z" transform="translate(-30.7 -125.3)"/><path class="b" d="M274.9,161V136.8h3.4l7.8,12.2a63.5,63.5,0,0,1,4.3,7.9h.1c-.3-3.3-.3-6.2-.3-10V136.8h2.9V161h-3.2l-7.7-12.3a73.7,73.7,0,0,1-4.5-8.1h-.1c.2,3.1.2,6,.2,10V161Z" transform="translate(-30.7 -125.3)"/><path class="b" d="M326.7,150.4c-.2-3.4-.4-7.5-.4-10.5h-.1c-.8,2.8-1.8,5.9-3.1,9.2l-4.2,11.8h-2.4l-3.9-11.6a97.5,97.5,0,0,1-2.9-9.4h0c-.1,3-.3,7.1-.5,10.7l-.6,10.4h-3l1.7-24.2h4l4.1,11.7c1,3,1.8,5.6,2.4,8.2h.2a73.5,73.5,0,0,1,2.5-8.2l4.3-11.7h4l1.5,24.2h-3Z" transform="translate(-30.7 -125.3)"/><path class="b" d="M355.9,148.6c0,8.4-5.1,12.8-11.3,12.8s-10.9-5-10.9-12.3,4.8-12.7,11.3-12.7S355.9,141.4,355.9,148.6Zm-18.8.4c0,5.2,2.8,9.9,7.7,9.9s7.8-4.6,7.8-10.1-2.5-9.9-7.8-9.9S337.1,143.7,337.1,149Z" transform="translate(-30.7 -125.3)"/><path class="b" d="M363.7,139.4h-7.4v-2.6h18v2.6h-7.5V161h-3.1Z" transform="translate(-30.7 -125.3)"/><path class="b" d="M389.5,149.6h-9.4v8.8h10.5V161H377V136.8h13.1v2.6h-10V147h9.4Z" transform="translate(-30.7 -125.3)"/><path class="b" d="M397.8,136.8v14.3c0,5.5,2.4,7.8,5.7,7.8s5.9-2.4,5.9-7.8V136.8h3.1v14.1c0,7.5-3.9,10.5-9.2,10.5s-8.7-2.8-8.7-10.4V136.8Z" transform="translate(-30.7 -125.3)"/><path class="b" d="M418,137.1a33.7,33.7,0,0,1,6-.5c3.3,0,5.5.6,7,2a5.9,5.9,0,0,1,1.9,4.6,6.4,6.4,0,0,1-4.6,6.2h0c1.9.6,3,2.3,3.6,4.9a39.1,39.1,0,0,0,1.9,6.6h-3.3a34.4,34.4,0,0,1-1.6-5.8c-.7-3.3-2-4.6-4.9-4.7h-2.9V161H418Zm3.1,11h3.2c3.3,0,5.5-1.8,5.5-4.6s-2.3-4.5-5.6-4.5a10.4,10.4,0,0,0-3.1.3Z" transform="translate(-30.7 -125.3)"/><path class="b" d="M47.2,200.4a10.9,10.9,0,0,0,5.6,1.6c3.2,0,5.1-1.7,5.1-4.2s-1.3-3.5-4.6-4.8-6.4-3.4-6.4-6.9,3.1-6.5,7.9-6.5a11.3,11.3,0,0,1,5.3,1.1l-.8,2.6a10.3,10.3,0,0,0-4.6-1.2c-3.4,0-4.6,2-4.6,3.7s1.5,3.4,4.8,4.7,6.2,3.5,6.2,7.1-2.8,7-8.5,7a12.3,12.3,0,0,1-6.2-1.6Z" transform="translate(-30.7 -125.3)"/><path class="b" d="M68.5,180v14.3c0,5.5,2.4,7.8,5.7,7.8s5.9-2.4,5.9-7.8V180h3.1v14.1c0,7.5-3.9,10.5-9.1,10.5s-8.8-2.8-8.8-10.4V180Z" transform="translate(-30.7 -125.3)"/><path class="b" d="M88.7,180.3a34.5,34.5,0,0,1,6-.5c3.3,0,5.5.6,7,2a5.9,5.9,0,0,1,1.9,4.6,6.4,6.4,0,0,1-4.6,6.2h0c1.9.6,3,2.3,3.6,4.9a39.1,39.1,0,0,0,1.9,6.6h-3.3a34.4,34.4,0,0,1-1.6-5.8c-.7-3.3-2-4.6-4.8-4.7h-3v10.5H88.7Zm3.1,11H95c3.4,0,5.5-1.8,5.5-4.6s-2.3-4.5-5.6-4.5a10.4,10.4,0,0,0-3.1.3Z" transform="translate(-30.7 -125.3)"/><path class="b" d="M136.1,193.6c-.2-3.4-.4-7.5-.3-10.5h-.2c-.8,2.8-1.8,5.9-3,9.2l-4.3,11.8h-2.4L122,192.5c-1.1-3.4-2.1-6.5-2.8-9.4h-.1c0,3-.2,7.1-.4,10.7l-.7,10.4h-3l1.7-24.2h4l4.1,11.7a67.7,67.7,0,0,1,2.5,8.2h.1a75.6,75.6,0,0,1,2.6-8.2l4.3-11.7h4l1.5,24.2h-3.1Z" transform="translate(-30.7 -125.3)"/><path class="b" d="M157.2,192.8h-9.5v8.8h10.6v2.6H144.6V180h13.1v2.6h-10v7.6h9.5Z" transform="translate(-30.7 -125.3)"/><path class="b" d="M161.9,200.4a10.6,10.6,0,0,0,5.6,1.6c3.2,0,5.1-1.7,5.1-4.2s-1.3-3.5-4.6-4.8-6.4-3.4-6.4-6.9,3.1-6.5,7.9-6.5a11.3,11.3,0,0,1,5.3,1.1l-.8,2.6a10.4,10.4,0,0,0-4.7-1.2c-3.3,0-4.5,2-4.5,3.7s1.4,3.4,4.8,4.7,6.2,3.5,6.2,7.1-2.8,7-8.5,7a12.3,12.3,0,0,1-6.2-1.6Z" transform="translate(-30.7 -125.3)"/><path class="b" d="M183.2,180v14.3c0,5.5,2.4,7.8,5.7,7.8s5.9-2.4,5.9-7.8V180h3.1v14.1c0,7.5-3.9,10.5-9.2,10.5s-8.7-2.8-8.7-10.4V180Z" transform="translate(-30.7 -125.3)"/><path class="b" d="M203.4,180.3a33.7,33.7,0,0,1,6-.5c3.3,0,5.5.6,7,2a5.9,5.9,0,0,1,1.9,4.6,6.4,6.4,0,0,1-4.6,6.2h0c1.9.6,3,2.3,3.6,4.9a39.1,39.1,0,0,0,1.9,6.6h-3.3a34.4,34.4,0,0,1-1.6-5.8c-.7-3.3-2-4.6-4.9-4.7h-2.9v10.5h-3.1Zm3.1,11h3.2c3.3,0,5.5-1.8,5.5-4.6s-2.3-4.5-5.6-4.5a10.4,10.4,0,0,0-3.1.3Z" transform="translate(-30.7 -125.3)"/><path class="b" d="M235.3,192.8h-9.4v8.8h10.5v2.6H222.7V180h13.1v2.6h-9.9v7.6h9.4Z" transform="translate(-30.7 -125.3)"/><path d="M442.2,224.7H30.7V125.3H442.2ZM31.8,223.6H441.1V126.4H31.8Z" transform="translate(-30.7 -125.3)"/><path d="M349.4,188.1h-3.7v-4.7h-5.6l-7.3-3.2h-7.6v-4.7h9.7V174H305.8v1.5h9.7v4.7h-7.7l-8.5,4.7h-6.8v4.7h-6v-7H284v19.6h2.5v-6.3h6v6.3h7l8.4,3.1h13.7v-1.6h-13l-7.6-2.8V186.1l7.7-4.3h23.4l6.4,2.8v2.7h2.4v-2.4h2.4v18.8h-2.4v1.6h4.8v-3.9h3.7V203h9.7V185.7h-9.7Zm-56.9,6.2h-6v-3.1h6Zm6.1,6.3h-3.7V186.5h3.7Zm24.2-20.4h-4.9v-4.7h4.9Zm26.6,19.6h-3.7V189.6h3.7Zm2.4-12.5h4.8v14.1h-4.8Z" transform="translate(-30.7 -125.3)"/><path d="M346.2,205.8h-5.8v-2.6h2.4V185.4h-1.4v2.4H338v-2.9l-6-2.6H308.8l-7.3,4.1v14.2l7.2,2.6h13.4v2.6H307.7l-8.3-3.1H292v-6.3h-5v6.3h-3.5V182.1H287v7h5v-4.7h7.2l8.5-4.7H315V176h-9.7v-2.5h30.1V176h-9.7v3.7H333l7.2,3.1h6v4.7h2.7v-2.4h10.7v18.3H348.9v-1.6h-2.7Zm-4.8-1h3.8v-3.9h4.7v1.6h8.7V186.2h-8.7v2.4h-4.7v-4.7h-5.3l-7.2-3.1h-8V175h9.7v-.5H306.3v.5H316v5.7h-8.1l-8.4,4.7H293v4.7h-7v-7h-1.5v18.6H286v-6.3h7v6.3h6.6l8.4,3.1h13.1v-.6H308.4l-7.9-2.9V185.8l8.1-4.5h23.7l6.7,2.9v2.6h1.4v-2.4h3.4v19.8h-2.4Zm15.7-2.9h-5.8V186.8h5.8Zm-4.8-1h3.8V187.8h-3.8Zm-53.2.2h-4.7V186h4.7Zm-3.7-1h2.7V187h-2.7Zm54.5.2h-4.7V189.1h4.7Zm-3.7-1h2.7v-9.2h-2.7ZM293,194.8h-7v-4.1h7Zm-6-1h5v-2.1h-5Zm36.3-13.1h-5.9V175h5.9Zm-4.9-1h3.9V176h-3.9Z" transform="translate(-30.7 -125.3)"/><path d="M332.9,191.2h-9l6.1-5.5H318.4l-7.3,9.4h7.6l-3.2,7.4ZM315,193.5l4.9-6.2h5.4l-6.1,5.5h7.9l-6.7,4.3,1.5-3.6Z" transform="translate(-30.7 -125.3)"/><path d="M314.3,203.8l3.7-8.2h-7.9l8-10.4h13.1l-6,5.5h9.4Zm-2.2-9.2h7.4l-2.9,6.6,14.7-9.5h-8.7l6.1-5.5H318.6Zm7.1,3.9,2-4.5H314l5.6-7.2h6.9l-6,5.5h8.3Zm3.4-5.2-1.1,2.5,3.9-2.5Zm-6.5-.3h2l5.9-5.2h-3.9Z" transform="translate(-30.7 -125.3)"/><rect x="301.8" y="78.5" width="6" height="1.57"/><path d="M339,205.8h-7.1v-2.6H339Zm-6.1-1H338v-.6h-5.1Z" transform="translate(-30.7 -125.3)"/><polygon points="299.3 78.5 301.8 78.5 301.8 74.5 299.3 74.5 299.3 78.5 293.3 78.5 293.3 80 299.3 80 299.3 83.9 301.8 83.9 301.8 80 299.3 80 299.3 78.5"/><path d="M332.9,209.7h-3.4v-3.9h-6v-2.6h6v-3.9h3.4v4.9h-2.4v.6h2.4Zm-2.4-1h1.4v-2.9h-1.4Zm-6-3.9h5v-.6h-5Zm6-1.6h1.4v-2.9h-1.4Z" transform="translate(-30.7 -125.3)"/><path d="M486.3,313.8h0L335.9,303.6a.6.6,0,0,1-.5-.6c0-.3.3-.4.6-.4l150.3,10.2a.6.6,0,0,1,.5.6A.5.5,0,0,1,486.3,313.8Z" transform="translate(-30.7 -125.3)"/><circle cx="457.9" cy="188" r="4.8"/><path d="M488.6,318.7a5.4,5.4,0,1,1,5.3-5.4A5.4,5.4,0,0,1,488.6,318.7Zm0-9.7a4.4,4.4,0,0,0-4.4,4.3,4.4,4.4,0,0,0,4.4,4.4,4.4,4.4,0,0,0,4.3-4.4A4.3,4.3,0,0,0,488.6,309Z" transform="translate(-30.7 -125.3)"/><circle cx="191" cy="98.8" r="4.4"/><path d="M221.7,228.8a4.7,4.7,0,1,1,4.6-4.7A4.7,4.7,0,0,1,221.7,228.8Zm0-8.8a4.1,4.1,0,0,0-4.1,4.1,4.1,4.1,0,0,0,4.1,4.1,4.1,4.1,0,0,0,4.1-4.1A4.2,4.2,0,0,0,221.7,220Z" transform="translate(-30.7 -125.3)"/><path d="M335.9,303.6h-.3l-113-75.7a.5.5,0,1,1,.5-.9l113.1,75.7a.5.5,0,0,1,.1.7C336.2,303.5,336.1,303.6,335.9,303.6Z" transform="translate(-30.7 -125.3)"/><path d="M1332.6,415.3H1036.2a.5.5,0,0,1-.5-.5V349.9a.5.5,0,0,1,.5-.5h296.4a.5.5,0,0,1,.5.5v64.9A.5.5,0,0,1,1332.6,415.3Zm-295.8-1.1H1332V350.5H1036.8Z" transform="translate(-30.7 -125.3)"/><path class="b" d="M1121.2,370.9a43.6,43.6,0,0,1,6.7-.5c4.5,0,7.7,1,9.8,3a11.4,11.4,0,0,1,3.4,8.7c0,4-1.2,7.2-3.5,9.4s-6,3.5-10.7,3.5a46.7,46.7,0,0,1-5.7-.3Zm3.1,21.4a15.2,15.2,0,0,0,3.2.2c6.7,0,10.3-3.7,10.3-10.3s-3.2-9.4-9.8-9.4a16.6,16.6,0,0,0-3.7.4Z" transform="translate(-30.7 -125.3)"/><path class="b" d="M1148.3,370.5v24.3h-3.1V370.5Z" transform="translate(-30.7 -125.3)"/><path class="b" d="M1157.7,387.2l-2.5,7.6h-3.3l8.3-24.3h3.8l8.2,24.3h-3.3l-2.6-7.6Zm8-2.5-2.4-7a42.9,42.9,0,0,1-1.3-4.4h-.1a36,36,0,0,1-1.2,4.4l-2.4,7Z" transform="translate(-30.7 -125.3)"/><path class="b" d="M1193.7,393.7a21.9,21.9,0,0,1-7.4,1.4,12.5,12.5,0,0,1-9.1-3.3,12.3,12.3,0,0,1-3.4-9c.1-7.2,5-12.5,13.2-12.5a14.7,14.7,0,0,1,6,1.1l-.7,2.6a12.5,12.5,0,0,0-5.4-1.1c-5.9,0-9.8,3.7-9.8,9.8s3.8,9.8,9.4,9.8a9.3,9.3,0,0,0,4.2-.7v-7.2h-5v-2.5h8Z" transform="translate(-30.7 -125.3)"/><path class="b" d="M1198.5,394.8V370.5h3.4l7.8,12.3a82.5,82.5,0,0,1,4.4,7.9h0c-.2-3.3-.3-6.2-.3-10V370.5h2.9v24.3h-3.1l-7.7-12.3c-1.7-2.7-3.3-5.5-4.6-8.1h-.1c.2,3.1.3,6,.3,10v10.4Z" transform="translate(-30.7 -125.3)"/><path class="b" d="M1242.9,382.4c0,8.4-5,12.8-11.2,12.8s-10.9-5-10.9-12.3,4.8-12.8,11.2-12.8S1242.9,375.2,1242.9,382.4Zm-18.8.4c0,5.2,2.8,9.8,7.8,9.8s7.7-4.5,7.7-10-2.5-9.9-7.7-9.9S1224.1,377.5,1224.1,382.8Z" transform="translate(-30.7 -125.3)"/><path class="b" d="M1246.6,391a11.6,11.6,0,0,0,5.6,1.6c3.2,0,5.1-1.7,5.1-4.2s-1.3-3.5-4.6-4.8-6.4-3.5-6.4-6.9,3.1-6.6,7.8-6.6a11.3,11.3,0,0,1,5.4,1.2l-.9,2.6a9.5,9.5,0,0,0-4.6-1.2c-3.3,0-4.5,2-4.5,3.7s1.4,3.4,4.8,4.6,6.2,3.6,6.2,7.2-2.8,7-8.5,7a12,12,0,0,1-6.2-1.6Z" transform="translate(-30.7 -125.3)"/><path class="b" d="M1269.4,373.2H1262v-2.7h18v2.7h-7.5v21.6h-3.1Z" transform="translate(-30.7 -125.3)"/><path class="b" d="M1285.8,370.5v24.3h-3.1V370.5Z" transform="translate(-30.7 -125.3)"/><path class="b" d="M1308.2,394a14.6,14.6,0,0,1-6.4,1.2c-6.8,0-12-4.4-12-12.3s5.2-12.8,12.7-12.8a14,14,0,0,1,5.8,1.1l-.8,2.6a11.2,11.2,0,0,0-4.9-1c-5.7,0-9.5,3.6-9.5,10s3.5,9.7,9.4,9.7a12.9,12.9,0,0,0,5.1-1Z" transform="translate(-30.7 -125.3)"/><path class="d" d="M1036.2,135.7" transform="translate(-30.7 -125.3)"/><path d="M960.1,278.9h-.4a.5.5,0,0,1,0-.7l76.1-86.4a.6.6,0,0,1,.8,0c.2.1.2.5,0,.7l-76.2,86.4Z" transform="translate(-30.7 -125.3)"/><path d="M1036.2,350.4h-.3l-76.2-71.5a.5.5,0,1,1,.7-.7l76.2,71.5a.5.5,0,0,1,0,.7Z" transform="translate(-30.7 -125.3)"/><ellipse cx="1005.5" cy="224.7" rx="4.4" ry="4.6"/><path d="M1036.2,354.9a5,5,0,0,1,0-9.9,5,5,0,0,1,0,9.9Zm0-9.2a4.3,4.3,0,1,0,4,4.2A4.1,4.1,0,0,0,1036.2,345.7Z" transform="translate(-30.7 -125.3)"/><path d="M335.5,452.6H39.2a.4.4,0,0,1-.4-.4V364.6c0-.2.2-.3.4-.3H335.5a.3.3,0,0,1,.3.3v87.6C335.8,452.4,335.7,452.6,335.5,452.6Zm-295.9-.8H335.1V365H39.6Z" transform="translate(-30.7 -125.3)"/><path class="b" d="M56.7,375.3a35.4,35.4,0,0,1,6-.5c3.4,0,5.5.6,7.1,2a6.1,6.1,0,0,1,1.9,4.6,6.5,6.5,0,0,1-4.6,6.2h0c1.9.6,3,2.4,3.6,4.9a35,35,0,0,0,1.8,6.7H69.3a34.4,34.4,0,0,1-1.6-5.8c-.8-3.4-2-4.7-4.9-4.8H59.9v10.6H56.7Zm3.2,11.1h3.2c3.3,0,5.4-1.9,5.4-4.6s-2.2-4.5-5.5-4.6a14.7,14.7,0,0,0-3.1.3Z" transform="translate(-30.7 -125.3)"/><path class="b" d="M88.7,387.9H79.2v8.7H89.7v2.7H76.1V375H89.2v2.6h-10v7.7h9.5Z" transform="translate(-30.7 -125.3)"/><path class="b" d="M93.8,375.3a31.2,31.2,0,0,1,6-.5c3.1,0,5.4.7,6.8,2a6.4,6.4,0,0,1,2.1,5.1,7.3,7.3,0,0,1-1.8,5.2,10.4,10.4,0,0,1-7.4,2.6,10.6,10.6,0,0,1-2.6-.2v9.8H93.8ZM96.9,387a10.2,10.2,0,0,0,2.6.2c3.8,0,6.1-1.8,6.1-5.2s-2.3-4.7-5.7-4.7l-3,.2Z" transform="translate(-30.7 -125.3)"/><path class="b" d="M113.9,391.6l-2.6,7.7h-3.2l8.2-24.3h3.8l8.3,24.3h-3.3l-2.6-7.7Zm7.9-2.4-2.4-7c-.5-1.6-.9-3-1.2-4.4h-.1l-1.2,4.4-2.4,7Z" transform="translate(-30.7 -125.3)"/><path class="b" d="M132,375.3a33.7,33.7,0,0,1,6-.5c3.3,0,5.5.6,7,2a6.1,6.1,0,0,1,1.9,4.6,6.4,6.4,0,0,1-4.6,6.2h0c1.9.6,3,2.4,3.6,4.9a41.3,41.3,0,0,0,1.9,6.7h-3.3a34.4,34.4,0,0,1-1.6-5.8c-.7-3.4-2-4.7-4.9-4.8h-2.9v10.6H132Zm3.1,11.1h3.2c3.3,0,5.5-1.9,5.5-4.6s-2.3-4.5-5.6-4.6a15.6,15.6,0,0,0-3.1.3Z" transform="translate(-30.7 -125.3)"/><path class="b" d="M155.4,391.6l-2.5,7.7h-3.2l8.2-24.3h3.8l8.3,24.3h-3.4l-2.6-7.7Zm8-2.4-2.4-7c-.5-1.6-.9-3-1.2-4.4h-.1l-1.2,4.4-2.4,7Z" transform="translate(-30.7 -125.3)"/><path class="b" d="M175.4,377.7H168V375h18v2.7h-7.5v21.6h-3.1Z" transform="translate(-30.7 -125.3)"/><path class="b" d="M191.8,375v24.3h-3.1V375Z" transform="translate(-30.7 -125.3)"/><path class="b" d="M218,386.9c0,8.3-5.1,12.7-11.3,12.7s-10.9-4.9-10.9-12.3,4.8-12.7,11.3-12.7S218,379.7,218,386.9Zm-18.8.4c0,5.1,2.8,9.8,7.7,9.8s7.8-4.6,7.8-10.1-2.5-9.9-7.7-9.9S199.2,381.9,199.2,387.3Z" transform="translate(-30.7 -125.3)"/><path class="b" d="M222.1,399.3V375h3.4l7.8,12.3a62.8,62.8,0,0,1,4.3,7.8h.1c-.3-3.2-.4-6.2-.4-10V375h3v24.3h-3.2l-7.7-12.4a65.5,65.5,0,0,1-4.5-8.1h-.1c.2,3,.2,6,.2,10v10.4Z" transform="translate(-30.7 -125.3)"/><path class="b" d="M77.2,431.8c-.2-3.4-.4-7.5-.4-10.5h-.1a90.7,90.7,0,0,1-3.1,9.2l-4.2,11.8H67l-3.9-11.5a80.4,80.4,0,0,1-2.8-9.5h-.1c-.1,3-.3,7.1-.5,10.7l-.6,10.5h-3l1.7-24.3h4l4.1,11.7c1,3,1.8,5.7,2.5,8.2h.1a80.5,80.5,0,0,1,2.5-8.2l4.3-11.7h4l1.5,24.3h-3Z" transform="translate(-30.7 -125.3)"/><path class="b" d="M98.2,431.1H88.8v8.7H99.3v2.7H85.7V418.2H98.8v2.6h-10v7.7h9.4Z" transform="translate(-30.7 -125.3)"/><path class="b" d="M120.3,441.7a16.7,16.7,0,0,1-6.4,1.1c-6.8,0-12-4.3-12-12.3s5.2-12.7,12.7-12.7a12.5,12.5,0,0,1,5.8,1.1l-.8,2.5a12.8,12.8,0,0,0-4.9-1c-5.7,0-9.4,3.7-9.4,10s3.4,9.8,9.3,9.8a12.9,12.9,0,0,0,5.1-1Z" transform="translate(-30.7 -125.3)"/><path class="b" d="M128.3,434.8l-2.5,7.7h-3.2l8.2-24.3h3.8l8.3,24.3h-3.4l-2.6-7.7Zm8-2.4-2.4-7-1.3-4.4h0l-1.2,4.4-2.4,7Z" transform="translate(-30.7 -125.3)"/><path class="b" d="M146.4,442.5V418.2h3.5l7.7,12.3a81.8,81.8,0,0,1,4.4,7.8h.1c-.3-3.2-.4-6.2-.4-10V418.2h2.9v24.3h-3.1l-7.7-12.4a83.2,83.2,0,0,1-4.6-8.1h-.1c.2,3,.3,6,.3,10v10.4Z" transform="translate(-30.7 -125.3)"/><path class="b" d="M173.3,418.2v24.3h-3.2V418.2Z" transform="translate(-30.7 -125.3)"/><path class="b" d="M195.7,441.7a17.6,17.6,0,0,1-6.4,1.1c-6.9,0-12-4.3-12-12.3s5.1-12.7,12.7-12.7a11.7,11.7,0,0,1,5.7,1.1l-.7,2.5a12.8,12.8,0,0,0-4.9-1c-5.7,0-9.5,3.7-9.5,10s3.4,9.8,9.3,9.8a12.5,12.5,0,0,0,5.1-1Z" transform="translate(-30.7 -125.3)"/><path d="M1093.1,365h-30.3a2.4,2.4,0,0,0-2.4,2.4v21.1a2.4,2.4,0,0,0,2.4,2.4h10.6l-.3,3.9h-3.7a.9.9,0,0,0,0,1.8h17.1a.9.9,0,0,0,0-1.8h-3.7l-.3-3.9h10.6a2.3,2.3,0,0,0,2.3-2.4V367.4A2.3,2.3,0,0,0,1093.1,365Zm-29.9,13.8h10.7l1.6,4.5a1.1,1.1,0,0,0,.9.6h0a1,1,0,0,0,.8-.7l1.9-9.1,1.4,4.1a.8.8,0,0,0,.8.6h11.4v6.6h-29.5v-6.6ZM1082,377l-2.4-6.5a1,1,0,0,0-.8-.6c-.4.1-.8.4-.8.8l-1.9,9.1-.8-2.2a.8.8,0,0,0-.8-.6h-11.3v-8.9h29.5V377Z" transform="translate(-30.7 -125.3)"/><path d="M1086.5,397.1h-17.1a1.4,1.4,0,0,1,0-2.8h3.2l.2-2.9h-10a2.9,2.9,0,0,1-2.9-2.9V367.4a2.9,2.9,0,0,1,2.9-2.9h30.3a2.8,2.8,0,0,1,2.8,2.9v21.1a2.8,2.8,0,0,1-2.8,2.9h-10l.2,2.9h3.2a1.4,1.4,0,1,1,0,2.8Zm-17.1-1.8a.4.4,0,1,0,0,.8h17.1a.4.4,0,1,0,0-.8h-4.1l-.4-4.9h11.1a1.8,1.8,0,0,0,1.8-1.9V367.4a1.9,1.9,0,0,0-1.8-1.9h-30.3a2,2,0,0,0-1.9,1.9v21.1a1.9,1.9,0,0,0,1.9,1.9h11.1l-.4,4.9Zm23.8-9.4h-30.5v-7.6h11.5l1.8,4.8c.1.2.2.3.4.3a.3.3,0,0,0,.3-.3l2.2-10.8,2.1,5.8.3.2h11.9Zm-29.5-1h28.5v-5.6h-10.9a1.5,1.5,0,0,1-1.3-.9l-.8-2.4-1.5,7.3a1.4,1.4,0,0,1-1.2,1.1h-.1a1.4,1.4,0,0,1-1.3-.9l-1.6-4.2h-9.8Zm12.6-3.3-1.5-3.8a.3.3,0,0,0-.3-.3h-11.8v-9.9h30.5v9.9h-11.6l-2.4-6.8c-.1-.2-.2-.3-.4-.3s-.3.2-.3.4Zm-12.6-5.1h10.8a1.4,1.4,0,0,1,1.3.9l.2.5,1.5-7.3a1.3,1.3,0,0,1,2.6-.2l2.2,6.1h9.9v-7.9h-28.5Z" transform="translate(-30.7 -125.3)"/><path d="M280.5,412.9l-1.4-3a13.7,13.7,0,0,0,3.3-3.5l3.1,1.2a1.2,1.2,0,0,0,1.5-.7l1.1-3a1.4,1.4,0,0,0,0-.9,1.1,1.1,0,0,0-.7-.6l-3.1-1.2a12.4,12.4,0,0,0-.1-4.7l3-1.4a1.2,1.2,0,0,0,.6-.6,1.4,1.4,0,0,0,0-.9l-1.3-3a1.2,1.2,0,0,0-1.5-.5l-3.1,1.3a12.3,12.3,0,0,0-3.5-3.3l1.2-3.1a1.1,1.1,0,0,0-.7-1.4l-3-1.2a.8.8,0,0,0-.8.1.9.9,0,0,0-.6.6l-1.2,3.1a12.9,12.9,0,0,0-4.8.1l-1.4-3a.9.9,0,0,0-.6-.6h-.9l-2.9,1.4a1.1,1.1,0,0,0-.6,1.5l1.4,3a13.7,13.7,0,0,0-3.3,3.5l-3.1-1.2h-.9a1.3,1.3,0,0,0-.6.7l-1.1,3a1.1,1.1,0,0,0,.6,1.5l3.1,1.2a12.4,12.4,0,0,0,.2,4.7l-3,1.4a1.2,1.2,0,0,0-.6.6,1,1,0,0,0,0,.9l1.3,3c.1.2.4.4.6.6a1,1,0,0,0,.9-.1l3-1.3a15.6,15.6,0,0,0,3.5,3.3l-1.1,3.1a1,1,0,0,0,.6,1.4l3,1.2h.9a.9.9,0,0,0,.6-.6l1.2-3.1a12.9,12.9,0,0,0,4.8-.1l1.3,3a1.3,1.3,0,0,0,.7.6h.9l2.9-1.4A1.1,1.1,0,0,0,280.5,412.9ZM278.6,402a7.9,7.9,0,0,1-7.3,5,6.6,6.6,0,0,1-2.8-.5,7.8,7.8,0,0,1-4.5-10,7.8,7.8,0,0,1,7.3-5,6.2,6.2,0,0,1,2.7.5,7.7,7.7,0,0,1,4.4,4.1A8,8,0,0,1,278.6,402Zm25.5,15.7a1.2,1.2,0,0,0-.8-.4h-2.2a10,10,0,0,0-1-2.9l1.6-1.5a1.1,1.1,0,0,0,0-1.6l-1.6-1.7a1,1,0,0,0-.8-.4,1.1,1.1,0,0,0-.8.3l-1.6,1.5a9,9,0,0,0-2.8-1.3v-2.2a1.2,1.2,0,0,0-1.1-1.2h-2.3a1.1,1.1,0,0,0-1.2,1.1v2.2a10,10,0,0,0-2.9,1l-1.5-1.6a1.2,1.2,0,0,0-1.6,0l-1.7,1.6a1.1,1.1,0,0,0-.1,1.6l1.5,1.6a9.2,9.2,0,0,0-1.4,2.8h-2.1a1.1,1.1,0,0,0-1.2,1.1v2.3a1.6,1.6,0,0,0,.3.9,1.1,1.1,0,0,0,.8.3h2.1a10.2,10.2,0,0,0,1.1,2.9l-1.6,1.5a2,2,0,0,0-.4.8,1.1,1.1,0,0,0,.3.8l1.6,1.7a.9.9,0,0,0,.8.4,1.1,1.1,0,0,0,.8-.3l1.6-1.4a15.1,15.1,0,0,0,2.9,1.3v2.1a1,1,0,0,0,1.1,1.2H292a1.1,1.1,0,0,0,.8-.3,1.2,1.2,0,0,0,.4-.8v-2.1a10.2,10.2,0,0,0,2.9-1.1l1.5,1.6a1.2,1.2,0,0,0,.8.4,1.1,1.1,0,0,0,.8-.3l1.7-1.6a1.1,1.1,0,0,0,.1-1.6l-1.5-1.6a10.2,10.2,0,0,0,1.3-2.8h2.2a1.1,1.1,0,0,0,1.2-1.1v-2.3A1.1,1.1,0,0,0,304.1,417.7Zm-12.9,6.8a5.5,5.5,0,0,1-5.2-5.6,5.4,5.4,0,0,1,5.4-5.1h.2a5.2,5.2,0,0,1,5.1,5.6A5.3,5.3,0,0,1,291.2,424.5Z" transform="translate(-30.7 -125.3)"/><path d="M292,432.6h-2.4a1.5,1.5,0,0,1-1.5-1.7V429a10.7,10.7,0,0,1-2.2-1l-1.3,1.2a1.7,1.7,0,0,1-1.2.4,1.6,1.6,0,0,1-1.1-.5l-1.6-1.7a2.1,2.1,0,0,1-.5-1.2,1.7,1.7,0,0,1,.6-1.2l1.3-1.2a9.2,9.2,0,0,1-.9-2.3h-1.7a1.7,1.7,0,0,1-1.2-.5,1.6,1.6,0,0,1-.4-1.2v-2.3a1.7,1.7,0,0,1,1.7-1.6h1.8a9.4,9.4,0,0,1,1-2.3l-1.2-1.3a1.7,1.7,0,0,1,.1-2.3l1.7-1.6a1.9,1.9,0,0,1,1.2-.4,1.7,1.7,0,0,1,1.2.5l1.2,1.3a9,9,0,0,1,2.3-.8v-1.8a1.7,1.7,0,0,1,1.7-1.6h2.3a1.7,1.7,0,0,1,1.6,1.7v1.8a9.7,9.7,0,0,1,2.3,1.1l1.3-1.2a1.7,1.7,0,0,1,1.2-.5,1.4,1.4,0,0,1,1.1.6l1.6,1.7a1.6,1.6,0,0,1-.1,2.3l-1.3,1.2a10.5,10.5,0,0,1,.8,2.3h1.8a1.7,1.7,0,0,1,1.2.5h0a1.9,1.9,0,0,1,.4,1.2v2.4a1.6,1.6,0,0,1-1.7,1.5h-1.8a9.1,9.1,0,0,1-1.1,2.2l1.3,1.3a1.7,1.7,0,0,1-.1,2.3l-1.8,1.6a1.7,1.7,0,0,1-1.2.5,1.7,1.7,0,0,1-1.1-.6l-1.2-1.3a9.2,9.2,0,0,1-2.3.9V431a1.7,1.7,0,0,1-.5,1.2A1.6,1.6,0,0,1,292,432.6Zm-6.2-5.9.3.2a8.4,8.4,0,0,0,2.7,1.3h.4v2.5a.6.6,0,0,0,.6.7h2.8c.1-.2.2-.3.2-.5v-2.6h.4a13.3,13.3,0,0,0,2.8-1l.3-.2,1.7,1.9.5.2.5-.2,1.7-1.6a.6.6,0,0,0,0-.9l-1.7-1.9.2-.3a6.6,6.6,0,0,0,1.2-2.7l.2-.4h2.5a.6.6,0,0,0,.7-.6v-2.3a.8.8,0,0,0-.2-.5h0l-.4-.2h-2.6v-.4a9.4,9.4,0,0,0-1-2.8l-.2-.3,1.9-1.7a.6.6,0,0,0,.1-.9l-1.6-1.8-.5-.2-.4.2-1.9,1.7-.4-.2a6.8,6.8,0,0,0-2.6-1.2h-.4v-2.6a.7.7,0,0,0-.6-.7h-2.4a.6.6,0,0,0-.6.6v2.6h-.4a9.4,9.4,0,0,0-2.8,1l-.3.2-1.8-1.9a.5.5,0,0,0-.4-.2h-.5l-1.7,1.6a.8.8,0,0,0-.2.5c0,.2,0,.3.2.4l1.7,1.9-.2.4a9.1,9.1,0,0,0-1.3,2.6v.4h-2.5a.7.7,0,0,0-.7.6v2.4a.4.4,0,0,0,.2.4c.1.2.2.2.4.2h2.6v.4a13.3,13.3,0,0,0,1,2.8l.2.3-1.8,1.8c-.2.1-.3.2-.3.4a.8.8,0,0,0,.2.5l1.6,1.7.4.2h.5Zm5.6-1.7h-.3a6.1,6.1,0,0,1-4-1.9,6.1,6.1,0,0,1-1.6-4.2,5.9,5.9,0,0,1,5.9-5.6h.2a5.7,5.7,0,0,1,5.6,6.1A5.8,5.8,0,0,1,291.4,425Zm-.2-1a4.9,4.9,0,0,0,.4-9.7h-.2a4.9,4.9,0,0,0-4.9,4.6,5.1,5.1,0,0,0,1.3,3.5,5,5,0,0,0,3.4,1.6ZM267,416.6h-.5l-3.1-1.1a1.7,1.7,0,0,1-.9-2.1l1-2.8a11.4,11.4,0,0,1-3-2.8l-2.7,1.2a1.3,1.3,0,0,1-1.2,0,1.4,1.4,0,0,1-1-.8l-1.3-3a1.3,1.3,0,0,1,0-1.2,1.6,1.6,0,0,1,.8-1l2.7-1.1a14.8,14.8,0,0,1-.1-4.2l-2.7-1.1a1.4,1.4,0,0,1-1-.8,1.9,1.9,0,0,1,0-1.3l1.1-3a2,2,0,0,1,.9-.9,1.5,1.5,0,0,1,1.3,0l2.7,1a13.8,13.8,0,0,1,2.8-3.1l-1.2-2.6a1.7,1.7,0,0,1,.9-2.2l2.9-1.3a1.5,1.5,0,0,1,2.2.8l1.2,2.7a14.8,14.8,0,0,1,4.2-.2l1-2.7a1.6,1.6,0,0,1,.9-.9,1.3,1.3,0,0,1,1.2,0l3,1.1a1.6,1.6,0,0,1,.9.9,1.7,1.7,0,0,1,.1,1.2L279,388a11.8,11.8,0,0,1,3.1,2.8l2.6-1.2a1.6,1.6,0,0,1,2.2.8l1.3,3a1.7,1.7,0,0,1,.1,1.2,2.2,2.2,0,0,1-.9,1l-2.6,1.2a14,14,0,0,1,.1,4.1l2.7,1.1a1.2,1.2,0,0,1,.9.8,2,2,0,0,1,.1,1.3l-1.2,3a1.4,1.4,0,0,1-.8.9,1.5,1.5,0,0,1-1.3,0l-2.7-1a14.2,14.2,0,0,1-2.9,3.1l1.2,2.6a1.5,1.5,0,0,1-.8,2.2l-2.9,1.3a1.5,1.5,0,0,1-2.2-.8l-1.2-2.7a14.8,14.8,0,0,1-4.2.2l-1,2.7a2,2,0,0,1-.9.9Zm-6.2-10.2.2.4a14.3,14.3,0,0,0,3.4,3.1l.3.3-1.3,3.4a.8.8,0,0,0,.4.9l3,1.1h.5c.2-.1.3-.2.3-.4l1.4-3.4h.4a14.2,14.2,0,0,0,4.6-.1h.4l1.5,3.4c.1.1.2.3.4.3h.5l2.9-1.3c.1-.1.3-.2.3-.4a.4.4,0,0,0,0-.5l-1.5-3.4.3-.2a13,13,0,0,0,3.2-3.4l.2-.3,3.5,1.3h.5l.3-.4,1.1-3a.4.4,0,0,0,0-.5l-.3-.3-3.5-1.3v-.4a11.8,11.8,0,0,0-.1-4.6v-.4l3.4-1.6c.2,0,.3-.2.4-.3a.7.7,0,0,0-.1-.5l-1.3-2.9a.6.6,0,0,0-.8-.4l-3.4,1.6-.3-.4a12.2,12.2,0,0,0-3.3-3.1l-.4-.3,1.3-3.4a.7.7,0,0,0-.3-.9l-3-1.1h-.5l-.4.4-1.3,3.5h-.4a14.2,14.2,0,0,0-4.6.1h-.4l-1.5-3.4c-.1-.1-.2-.3-.4-.3h-.5l-2.9,1.3a.7.7,0,0,0-.3.9l1.5,3.4-.3.2a11.5,11.5,0,0,0-3.2,3.4l-.2.3-3.5-1.3h-.5c-.1.1-.3.2-.3.4l-1.2,3a.7.7,0,0,0,.4.8l3.5,1.3v.4a11.8,11.8,0,0,0,.2,4.6v.4l-3.4,1.6c-.2,0-.3.2-.4.3v.5l1.4,3c0,.1.2.2.3.3s.4,0,.5,0Zm10.5,1.1a7.1,7.1,0,0,1-2.9-.5,8.3,8.3,0,0,1-4.7-4.3,8.8,8.8,0,0,1-.2-6.4,8.5,8.5,0,0,1,7.8-5.3,7.1,7.1,0,0,1,2.9.5,8.1,8.1,0,0,1,4.6,4.3,8.4,8.4,0,0,1,.2,6.4h0A8.2,8.2,0,0,1,271.3,407.5Zm0-15.5a7.3,7.3,0,0,0-6.8,4.7,7,7,0,0,0,.1,5.5,7,7,0,0,0,6.7,4.3,7.4,7.4,0,0,0,6.8-4.7h0a7,7,0,0,0-.2-5.5,7.3,7.3,0,0,0-4-3.9A7.8,7.8,0,0,0,271.3,392Z" transform="translate(-30.7 -125.3)"/><rect x="244" y="333.5" width="102.4" height="1" transform="translate(-172.7 121.6) rotate(-37.3)"/><ellipse cx="223.7" cy="239.7" rx="4.4" ry="4.6"/><path d="M254.4,370a4.9,4.9,0,0,1-4.8-5,5,5,0,0,1,4.8-5,4.9,4.9,0,0,1,4.7,5A4.8,4.8,0,0,1,254.4,370Zm0-9.2a4.3,4.3,0,1,0,4,4.2A4.1,4.1,0,0,0,254.4,360.8Z" transform="translate(-30.7 -125.3)"/><rect x="244" y="333.5" width="102.4" height="1" transform="translate(-172.7 121.6) rotate(-37.3)"/></svg>