<svg xmlns="http://www.w3.org/2000/svg" viewBox="0 0 1304.6 387.8"><defs><style>.a,.aa,.ab,.b,.c,.d,.e,.h,.s,.v{fill:none;}.a,.ab,.c,.f,.g,.h,.s,.t,.v{stroke:#000;}.a,.b,.c,.e,.f,.g,.h,.t,.v{stroke-linecap:round;stroke-linejoin:round;}.a,.b{stroke-width:0;}.b,.e{stroke:#fff;}.d{stroke:#262626;}.ab,.d,.s{stroke-miterlimit:10;}.g,.v{stroke-width:0.74px;}.h{stroke-width:1.14px;}.i{font-size:36px;font-family:MyriadPro-Regular, Myriad Pro;}.j{letter-spacing:-0.02em;}.k{fill:#010002;}.l{letter-spacing:0em;}.m{letter-spacing:0em;}.n{letter-spacing:0em;}.o{letter-spacing:-0.01em;}.p{letter-spacing:-0.08em;}.q{letter-spacing:0em;}.r{letter-spacing:-0.02em;}.s{stroke-width:1.14px;}.t{stroke-width:0.54px;}.u{letter-spacing:-0.02em;}.w{letter-spacing:-0.08em;}.x{letter-spacing:0em;}.y{letter-spacing:-0.08em;}.z{letter-spacing:0em;}</style></defs><path class="a" d="M469,264.9a1.3,1.3,0,0,1,.1.6h0" transform="translate(-18.6 -125.6)"/><path class="b" d="M469.9,265.2l-.8.3" transform="translate(-18.6 -125.6)"/><path class="a" d="M469,264.9a1.3,1.3,0,0,1,.1.6" transform="translate(-18.6 -125.6)"/><path class="a" d="M469.1,265.5h0l.8-.3" transform="translate(-18.6 -125.6)"/><path class="c" d="M469,264.9c-.4-1.5-1-3-.7-4.2,1.2-5.4,3.4-10,9.2-12.2,1.3-.6,2.1-2.6,3.2-4-1.1-.6-2.1-1.7-3.1-1.7-15,.2-30,.8-44.5,5.2-6.5,2-10.8,6.3-13.3,12.6-4.2,10.5,1.9,14.8,10.2,15.7,6.6.7,13.3.9,19.9,1.3l18.4,1.2c-4.1,3.9-7.6,6.7-10.5,10.1s-4.5,5.4-4.7,8.3c-.7,7.2-4.4,11.9-10,15.7-2.4,1.7-4.4,4.1-6.9,5.8-11,7.1-14.5,17.1-14.4,30,.4,50.3.1,100.5.1,150.7,0,8.4,5,13.4,13.4,13.4,13.7.2,27.3.1,41,0,8.9,0,13.7-5,13.8-14.1v-9.4c25.5.6,50.5,5.6,74.4-7.4.7,5.9,4.1,5.5,7.4,5.5H734.3c3.5,0,6.4-.4,7.7-5.5,23.9,13.2,49,7.5,74,7.4v7.9c.1,11,4.5,15.6,15.4,15.6h37c11.6,0,15.8-4.3,15.8-16,.2-28.3.5-56.6.4-84.9-.2-25.4-.8-50.9-1.6-76.3a13.9,13.9,0,0,0-4.1-8.6c-6.7-6.4-14.1-12.2-20.9-18.6a13.4,13.4,0,0,1-3.8-7c-.9-5.9-3-10.8-7.7-14.5-2.8-2.3-5.3-4.9-8.6-8.1l5.9-.5c10.8-.7,21.6-1.1,32.4-2.1,7.9-.8,14.1-5,10.2-15.4-2.7-6.9-7.3-12-14.5-13.1-13.9-2.2-28-3.5-42.1-5-1.4-.1-2.9.9-4.4,1.4,1.1,1.5,1.9,3.7,3.4,4.3,5.9,2.4,7.9,7.3,9.1,12.8.3,1.3-.7,2.8-1.1,4.2a22.8,22.8,0,0,1-5.2-1.8c-.8-.5-1.1-2-1.6-3-10.2-22.6-20.6-45.2-35.1-65.4-5.3-7.4-11.8-14-18.2-20.5-1.9-1.9-5.5-2.7-8.4-2.9-7.3-.4-14.6-.1-22.3-.1.5-8.5-5-10.2-10.9-11s-13.6-1.8-20.4-1.8q-61.7-.3-123.5,0a148.6,148.6,0,0,0-19.9,1.8c-6,.7-11.7,2.2-11.3,11-7.8,0-15.1-.3-22.4.1-2.7.1-6.1.9-7.9,2.7-6.4,6.3-13.2,12.6-17.9,20-9.6,15.2-18,31.1-26.6,46.8-3.8,7-6.7,14.5-10.4,21.6-.7,1.2-3,1.6-4.9,2.2" transform="translate(-18.6 -125.6)"/><path class="d" d="M818.1,268.7c-1-3-1.5-5.5-2.6-7.7q-16.2-33.6-32.8-67.1c-.7-1.4-3.1-2.4-4.8-2.5-16.3-1.3-32.6-2.6-48.9-3.2-31.8-1.2-63.6-3-95.4-2.5s-63.5,3.6-95.3,4.6c-10.2.3-16,3.4-20.2,13-8.5,19.5-18.3,38.4-27.5,57.6-1.1,2.4-1.6,5.1-2.5,7.8Z" transform="translate(-18.6 -125.6)"/><path class="c" d="M649.1,369.4c-.3-12.1-4.9-17.1-16.9-17.2-23.8-.1-47.6-.1-71.4.3-4.1.1-8.2,2.2-12.3,3.3-2.2.5-4.6,1.3-6.6.8q-40-10.7-79.9-21.8a31.8,31.8,0,0,0-20,1.2,8.7,8.7,0,0,0-4.7,4.7c-4.3,13.6-4,29.6,16,33.7,17,3.5,34.4,5.7,51.6,8.3a14.6,14.6,0,0,0,12.5-3.7c7.4-6.8,16.1-8.2,25.6-5.9a10.9,10.9,0,0,1,6,3.4c6.7,9,15.5,14.8,26.5,16.3,12.7,1.7,25.5,2.5,38.2,3.7a2.2,2.2,0,0,0,.1-.8c7,0,14,.1,21,0,9.2-.2,14.1-5.2,14.3-14.3Q649.3,375.4,649.1,369.4Z" transform="translate(-18.6 -125.6)"/><path class="c" d="M778,372.9c7.2-.4,5.6,3.3,11.1,6.2,3.3,1.8,7.5,3.9,10.9,3.4,18.2-2.3,36.4-4.5,54.2-8.5,15.6-3.6,21.7-19.8,14.2-34.1-.9-1.6-2.6-3.7-4.2-3.9-6.5-.8-13.5-2.6-19.5-1.1-26,6.5-51.7,14-77.5,21.3a13.7,13.7,0,0,1-11.8-1.5,18.8,18.8,0,0,0-8.5-2.2c-12.5-.2-25-.1-37.5-.1v-.2c-12.8,0-25.6-.1-38.4.1-8,.1-13.5,5.7-13.9,13.6-.2,5.6-.3,11.3-.1,16.9.3,7.4,5.4,12.8,12.7,12.7,17.8-.1,35.7-.3,53.4-1.5,11.4-.7,23-3.6,30.1-13.5C758.2,373.6,770.5,373.4,778,372.9Z" transform="translate(-18.6 -125.6)"/><path class="e" d="M552.4,470a81.2,81.2,0,0,0,14.8,2.1c26.6,1.5,53.2,2.7,77.6,3.9,26.2-.7,50.2-1.2,74.1-2.3,11.3-.5,22.6-1.9,33.8-3.5,7.7-1.1,9.8-5.4,6.3-12.5-2.5-5-6-9.5-8.9-14.4-4.8-7.9-11.7-11.5-21-12a1182.9,1182.9,0,0,0-151.8.2c-4.5.3-10.5.8-13,3.7a150.1,150.1,0,0,0-17.6,25C544,464.9,546.8,468.8,552.4,470Z" transform="translate(-18.6 -125.6)"/><path class="e" d="M448.1,416.6c1.4,12.4,3,24.7,4.7,37,.9,6.7,5,10.6,11.7,11.7l14.8,2.5c17.6,3.3,34.4.7,50.4-7.1,1.8-.8,4-1.7,5-3.2,4.5-7.3,8.7-14.8,12.9-22.4,1.4-2.4.3-3.7-2.3-4.1l-4.4-.8c-19.2-3-38.4-6.2-57.7-8.7-8.9-1.1-15.8-4.3-20-12.4-3.3-6.2-8.6-7.1-15.1-5.2C448.1,408.3,447.7,412.5,448.1,416.6Z" transform="translate(-18.6 -125.6)"/><path class="e" d="M764.2,438.5a182.9,182.9,0,0,0,9.3,15.9,21.8,21.8,0,0,0,7.1,6.4c21.8,11.3,44.4,9.3,67.2,4a11.7,11.7,0,0,0,9-9c4.5-17,5.4-34.3,5.5-51.9-7-1.9-12.1-.7-15.5,5.4a19.7,19.7,0,0,1-3.9,5.1c-2.6,2.1-5.3,4.7-8.4,5.4-10,2.2-20.2,3.8-30.4,5.4-11.8,1.8-23.7,3.3-35.6,5.1C761,431.3,760.6,432,764.2,438.5Z" transform="translate(-18.6 -125.6)"/><path class="e" d="M565.1,383.9c7.4,3.2,15.2,6.5,23.1,7.2,15,1.5,30.2,1.2,45.3,1.7,8.4.3,12.2-2.8,12.3-11.2a99.4,99.4,0,0,0-1.6-17.3c-1.3-6.9-3.1-8.5-10-8.9-12.1-.8-24.3-1.1-36.4-1.7v1.2H564.9a22,22,0,0,0-7.3,1.4c-1.5.7-3.3,2.5-3.6,4.1C552.6,367.3,558.7,381.3,565.1,383.9Z" transform="translate(-18.6 -125.6)"/><path class="e" d="M743.8,355.3c-10.8-.8-21.6-1.4-32.4-1.3-13.3.1-26.6.8-39.9,1.4-4.2.1-8.2,1.6-8.9,6.3-1.1,7-2.3,14.1-2.1,21.2s4,10.1,11.4,10h18.9c13.6-1,27.2-.2,40.6-4.5,11.2-3.7,18.2-10,20.3-21.9C753.1,358.5,751.9,355.8,743.8,355.3Z" transform="translate(-18.6 -125.6)"/><path class="c" d="M560.7,467.1c30.7,2,61.5,3.5,83.2,4.7,29.1-.8,49-1.1,69-2.1,13.1-.6,26.2-2.3,39.3-3.5,3.9-.4,4.9-2.8,3.3-5.9s-5.1-8.2-7.4-12.4c-4.8-8.8-12.1-12.1-22-12.6a1230.2,1230.2,0,0,0-139.8-.2c-20.6,1.2-20.6,1.2-31.9,18.6C547.7,464,548.5,466.3,560.7,467.1Z" transform="translate(-18.6 -125.6)"/><path class="c" d="M452,406.5c.4,17,1.4,32.5,5.3,47.8a8.3,8.3,0,0,0,7.2,6.7l16.7,2.8c16.1,3,31.5.3,46.2-6.6,1.6-.8,3.5-1.6,4.4-3,3.9-6.1,7.4-12.5,11.3-19.2l-3.9-.8c-17.8-2.6-35.6-5.6-53.4-7.9-11.4-1.4-21.4-4.5-26.9-15.8a2.4,2.4,0,0,0-.9-1.1Z" transform="translate(-18.6 -125.6)"/><path class="c" d="M767,434.8c3.3,5.8,5.8,11.1,9.2,15.7a23.8,23.8,0,0,0,8.2,7.3c19.5,9.9,39.7,7.6,60.1,3.5,5.1-1,8.1-3.7,8.8-8.8,2-14.7,3.9-29.5,5.9-44.3-5.8-2.1-7.4,1.2-9,3.8-4.5,7.3-10.1,12.1-19.2,13.2-13.4,1.5-26.7,4.1-40,6.1Z" transform="translate(-18.6 -125.6)"/><line class="c" x1="496.6" y1="223.9" x2="506.4" y2="241.6"/><line class="c" x1="505.4" y1="248.9" x2="506.4" y2="241.6"/><line class="c" x1="766.9" y1="225.4" x2="761.1" y2="241"/><line class="c" x1="762.7" y1="247.5" x2="761.1" y2="241"/><line class="c" x1="774.5" y1="152.4" x2="929.4" y2="153.2"/><circle class="f" cx="772.8" cy="153.2" r="3.3"/><ellipse class="g" cx="1007.7" cy="66.7" rx="4.4" ry="4.6"/><rect class="h" x="1007.7" y="27.6" width="296.3" height="64.81"/><text class="i" transform="translate(1094.5 60)">CHIPTUNING</text><text class="i" transform="translate(1127 87.8)">M<tspan class="j" x="28.9" y="0">O</tspan><tspan x="52.8" y="0">TEUR</tspan></text><path class="k" d="M1070.1,189.1v.2a1.4,1.4,0,0,0,1.5,1.3,1.4,1.4,0,0,0,1.4-1.4,1.3,1.3,0,0,0-1.4-1.3h-.3l-5.4-3.6Z" transform="translate(-18.6 -125.6)"/><path class="k" d="M1053.8,172l.7-.6a25,25,0,0,1,13.9-5.7h.9v5.5h1.6v-5.5h.9a24.6,24.6,0,0,1,15.4,6l.6.5-3.8,3.5,1.1,1,3.7-3.4.7.7a21.3,21.3,0,0,1,4.7,9.8l.2.9h-5.2v1.4h5.3v1.4a19.6,19.6,0,0,1-3.3,10.9l-.5.9-4.1-3.7-1.1,1,3.6,3.2h2.5a21,21,0,0,0,4-12.3c0-12.6-11.3-22.9-25-22.9s-25,10.3-25,22.9a20.9,20.9,0,0,0,3.9,12.3h2.6l3.7-2.9-1-1-4.4,3.4-.5-.8a21.1,21.1,0,0,1-3.3-11,.6.6,0,0,1,.1-.4v-.9h5.1v-1.4h-5l.2-.9a21,21,0,0,1,5-10.1l.6-.7,3.7,3.3h.3l.8-.8Z" transform="translate(-18.6 -125.6)"/><rect class="k" x="1041.3" y="79.5" width="21.6" height="1.5"/><text class="i" transform="translate(14.2 35.7)">P<tspan class="l" x="19.2" y="0">R</tspan><tspan x="38.6" y="0">OG</tspan><tspan class="m" x="86.7" y="0">R</tspan><tspan class="n" x="106.2" y="0">A</tspan><tspan class="o" x="128.1" y="0">M</tspan><tspan class="p" x="156.7" y="0">A</tspan><tspan class="q" x="176" y="0">TION M</tspan><tspan class="r" x="287.5" y="0">O</tspan><tspan class="q" x="311.4" y="0">TEUR </tspan><tspan x="0" y="43.2">SUR MESURE</tspan></text><rect class="s" x="0.6" y="0.6" width="410.4" height="98.26"/><path d="M337.3,188.4h-3.6v-4.7H328l-7.3-3.2h-7.6v-4.7h9.7v-1.5H293.7v1.5h9.7v4.7h-7.7l-8.5,4.7h-6.8v4.7h-6v-7H272v19.6h2.4v-6.3h6v6.3h7l8.4,3.1h13.7v-1.5h-13l-7.6-2.9V186.4l7.7-4.3H320l6.4,2.8v2.7h2.4v-2.4h2.4v18.9h-2.4v1.5h4.9v-3.9h3.6v1.6H347V186h-9.7Zm-56.9,6.2h-6v-3.1h6Zm6.1,6.3h-3.6V186.8h3.6Zm24.2-20.4h-4.9v-4.7h4.9Zm26.6,19.6h-3.6V189.9h3.6Zm2.4-12.5h4.9v14.1h-4.9Z" transform="translate(-18.6 -125.6)"/><path d="M320.9,191.5h-9.1l6.1-5.5H306.3l-7.3,9.4h7.7l-3.3,7.4ZM303,193.9l4.8-6.3h5.4l-6.1,5.5H315l-6.7,4.3,1.6-3.5Z" transform="translate(-18.6 -125.6)"/><rect x="301.8" y="78.5" width="6" height="1.57"/><polygon points="299.3 78.5 301.8 78.5 301.8 74.5 299.3 74.5 299.3 78.5 293.3 78.5 293.3 80 299.3 80 299.3 83.9 301.8 83.9 301.8 80 299.3 80 299.3 78.5"/><line class="c" x1="305.2" y1="177.8" x2="455.6" y2="188"/><circle class="f" cx="457.9" cy="188" r="4.8"/><circle class="t" cx="191" cy="98.8" r="4.4"/><line class="c" x1="305.2" y1="177.8" x2="192.2" y2="102.1"/><rect class="h" x="1005.5" y="224.7" width="296.3" height="64.81"/><text class="i" transform="translate(1087.8 269.5)">DI<tspan class="u" x="32.6" y="0">A</tspan><tspan x="54.1" y="0">GNOSTIC</tspan></text><path class="c" d="M1024.1,136" transform="translate(-18.6 -125.6)"/><line class="c" x1="1005.5" y1="66.7" x2="929.4" y2="153.2"/><line class="c" x1="1005.5" y1="224.7" x2="929.4" y2="153.2"/><ellipse class="g" cx="1005.5" cy="224.7" rx="4.4" ry="4.6"/><rect class="v" x="8.5" y="239.3" width="296.3" height="87.57"/><text class="i" transform="translate(23.3 274)">RE<tspan class="w" x="37.1" y="0">P</tspan><tspan class="x" x="53.2" y="0">A</tspan><tspan class="m" x="75.2" y="0">R</tspan><tspan class="y" x="94.8" y="0">A</tspan><tspan x="114" y="0">TION</tspan><tspan x="0" y="43.2">ME</tspan><tspan class="z" x="46.7" y="43.2">C</tspan><tspan x="67.7" y="43.2">ANIC</tspan></text><path d="M1081.1,365.3h-30.4a2.3,2.3,0,0,0-2.3,2.4v21.1a2.3,2.3,0,0,0,2.3,2.4h10.6l-.3,3.9h-3.7a.9.9,0,0,0,0,1.8h17.1a.9.9,0,1,0,0-1.8h-3.7l-.3-3.9h10.7a2.4,2.4,0,0,0,2.3-2.4V367.7A2.4,2.4,0,0,0,1081.1,365.3Zm-29.9,13.8h10.6l1.7,4.5a.8.8,0,0,0,.8.6h0a.8.8,0,0,0,.8-.7l1.9-9.1,1.4,4.1a1,1,0,0,0,.9.6h11.3v6.6h-29.4v-6.6Zm18.7-1.8-2.3-6.5a.9.9,0,0,0-.9-.5.8.8,0,0,0-.8.7l-1.9,9.1-.8-2.2a.8.8,0,0,0-.8-.6h-11.2v-8.9h29.4v8.9Z" transform="translate(-18.6 -125.6)"/><path d="M268.4,413.2l-1.4-3a12.3,12.3,0,0,0,3.3-3.5l3.1,1.2a1.2,1.2,0,0,0,1.5-.7l1.1-3a1.4,1.4,0,0,0,0-.9,1.7,1.7,0,0,0-.6-.6l-3.1-1.1a12.9,12.9,0,0,0-.2-4.8l3-1.4a.9.9,0,0,0,.6-.6,1.4,1.4,0,0,0,0-.9l-1.3-2.9a1.1,1.1,0,0,0-1.5-.6l-3.1,1.3a11.5,11.5,0,0,0-3.4-3.2l1.1-3.1a1.1,1.1,0,0,0-.6-1.5l-3-1.2a1,1,0,0,0-.9.1.9.9,0,0,0-.6.6l-1.2,3.1a12.9,12.9,0,0,0-4.8.2l-1.4-3.1a1.2,1.2,0,0,0-.6-.6,1,1,0,0,0-.9.1l-2.9,1.3a1.1,1.1,0,0,0-.6,1.5l1.4,3a15.6,15.6,0,0,0-3.3,3.5l-3.1-1.2a1,1,0,0,0-.9.1.9.9,0,0,0-.6.6l-1.1,3a1.2,1.2,0,0,0,.6,1.5l3.1,1.2a15.5,15.5,0,0,0,.2,4.8l-3,1.3a1.1,1.1,0,0,0-.6.7,1.1,1.1,0,0,0,0,.8l1.3,3a1.4,1.4,0,0,0,.7.6.8.8,0,0,0,.8-.1l3.1-1.3a13.3,13.3,0,0,0,3.4,3.3l-1.1,3.1a1,1,0,0,0,.6,1.4l3,1.2h.9a1.3,1.3,0,0,0,.6-.7l1.2-3.1a12.9,12.9,0,0,0,4.8-.1l1.4,3a.9.9,0,0,0,.6.6h.9l2.9-1.4A1.1,1.1,0,0,0,268.4,413.2Zm-1.9-10.9a7.9,7.9,0,0,1-7.3,5,6.9,6.9,0,0,1-2.8-.5,7.7,7.7,0,0,1-4.3-4,8.3,8.3,0,0,1-.2-6,7.9,7.9,0,0,1,7.3-5,6.9,6.9,0,0,1,2.8.5,7.8,7.8,0,0,1,4.3,4.1A7.6,7.6,0,0,1,266.5,402.3ZM292,418a1.2,1.2,0,0,0-.8-.4H289a10,10,0,0,0-1-2.9l1.6-1.4a1.2,1.2,0,0,0,0-1.7l-1.5-1.7a1.2,1.2,0,0,0-.8-.4,1.6,1.6,0,0,0-.9.3l-1.6,1.5a9,9,0,0,0-2.8-1.3v-2.2a1.2,1.2,0,0,0-1.1-1.2h-2.3a1.2,1.2,0,0,0-1.2,1.1v2.2a10.2,10.2,0,0,0-2.9,1.1l-1.5-1.6a.9.9,0,0,0-.8-.4,1.1,1.1,0,0,0-.8.3l-1.7,1.6a1.1,1.1,0,0,0-.1,1.6l1.5,1.6a7.9,7.9,0,0,0-1.3,2.8h-2.2a1.2,1.2,0,0,0-1.2,1.1V420a1.4,1.4,0,0,0,.3.9,1.1,1.1,0,0,0,.8.3h2.2a10.6,10.6,0,0,0,1,3l-1.6,1.4a1.1,1.1,0,0,0-.3.8.8.8,0,0,0,.3.8l1.5,1.8a1.1,1.1,0,0,0,.8.3,1.6,1.6,0,0,0,.9-.3l1.6-1.4a12,12,0,0,0,2.8,1.3v2.1a1.1,1.1,0,0,0,1.1,1.2H280a1.2,1.2,0,0,0,1.1-1.1v-2.1a10.2,10.2,0,0,0,2.9-1.1l1.5,1.6a1.2,1.2,0,0,0,.8.4,1.1,1.1,0,0,0,.8-.3l1.7-1.6a1.1,1.1,0,0,0,.1-1.6l-1.5-1.6a7.9,7.9,0,0,0,1.3-2.8H291a1.2,1.2,0,0,0,1.2-1.1v-2.4A1.1,1.1,0,0,0,292,418Zm-12.9,6.8a5.4,5.4,0,0,1,.2-10.7h.2a5.2,5.2,0,0,1,5.1,5.6A5.3,5.3,0,0,1,279.1,424.8Z" transform="translate(-18.6 -125.6)"/><line class="aa" x1="305.2" y1="177.8" x2="223.7" y2="239.7"/><ellipse class="g" cx="223.7" cy="239.7" rx="4.4" ry="4.6"/><line class="ab" x1="305.2" y1="177.8" x2="223.7" y2="239.7"/></svg>