<svg xmlns="http://www.w3.org/2000/svg" viewBox="0 0 174.6 348.2"><path d="M767.4,519.1a138.4,138.4,0,0,1-65.3-17.3,143.3,143.3,0,0,1-55-52.6,139.4,139.4,0,0,1-20.3-76.6c.8-35.2,13-66.3,36.4-92.7a143,143,0,0,1,107.1-48.1V201.4H759.9q-1.4,0-1.5,1.5c-.2,2.2-.5,4.4-.8,6.6s-1.1,6.9-1.7,10.4l-3.5.3-6.3,1.1-2.4.5-4,.6a2,2,0,0,1-2.4-1.1.5.5,0,0,1-.2-.4c-1-2.1-2-4.3-3.1-6.4s-2.7-5.6-4.1-8.5a140.9,140.9,0,0,0-22.3,7c.2,1.8.3,3.4.5,4.9l.6,3.4,1.5,8.3a1.8,1.8,0,0,1-1.2,2.3l-12.9,6.2c-1.9.9-2.2,1-3.6-.5s-4.7-5.1-7.1-7.7l-4.1-4.4a153.2,153.2,0,0,0-16.7,11.4c-2.8,2.3-2.8,2.3-1.1,5.4v.2l6.5,13.4a27.5,27.5,0,0,0-2.6,2.2l-9.4,8.8a2,2,0,0,1-2.6.4L643.2,260l-2.2-1c-.3.2-.4.2-.4.3-5.2,5.2-9.5,11.2-13.8,17.1a1.4,1.4,0,0,0,.2,1.9l3.8,4c2.2,2.2,4.4,4.4,6.5,6.7s1.5,2.1.4,4l-6.6,11.7c-1,1.7-1,1.7-3,1.3l-9.5-2.3-6.6-1.3c-1,2.3-2.1,4.4-2.9,6.5-1.6,4.4-3.2,8.7-4.7,13.1-.8,2.2-.8,2.3,1.2,3.6,4.3,2.5,8.5,5,12.9,7.4a1.6,1.6,0,0,1,1,2.1,74,74,0,0,0-2.9,13.2c-.3,2-1.2,2.7-3.2,3h-1.2l-13.4.7h-1.4a234.3,234.3,0,0,0-1.7,23.4l1,.6,14.4,3.3c2.8.6,3.1.9,3.3,3.7s.4,6.4.6,9.6c0,.9.1,1.7.1,2.6s-.1,2.2-1.9,2.9l-4.4,1.7-10.5,4.1c.2,1.5.3,2.9.6,4.3q.9,4.8,2.1,9.6l2.1,7.8a1.9,1.9,0,0,0,2.2,1.6H607l13.4-1.2a2.2,2.2,0,0,1,2.5,1.6c1.1,3.1,2.3,6.1,3.5,9.2l2.1,4.7a4.5,4.5,0,0,1-.9,1c-3.6,2.9-7.2,5.7-10.8,8.7s-3.1,1.9-1,5.3c.1.2.1.4.3.6,3,5.2,6.1,10.3,9.2,15.4,1,1.6,1.1,1.5,2.9.8l13-5.1c2.1-.8,2.5-.7,3.9,1s3.6,4.7,5.5,7,2.3,2.7,3.6,4.2l-10.5,15.3a163.5,163.5,0,0,0,18,16.3L674.3,502c1.6-1.3,1.9-1.3,3.6-.2l9.3,6.2c2.4,1.6,2.7,2,1.9,4.7l-3.7,11.8a32,32,0,0,0-.7,3.3c3.7,1.9,7.2,3.8,10.8,5.5s5.8,2.7,8.7,3.8,2.3.8,3.5-1.1c2.8-4,5.5-8.1,8.2-12.1.6-.8,1.1-1.3,2.2-.9l8.8,2.8a42.8,42.8,0,0,0,4.3,1.4c1.4.3,1.7,1.2,1.7,2.4-.1,3.9-.1,7.7-.1,11.5v3.6a1.7,1.7,0,0,0,1.6,1.8l5.6,1,6.6,1.2c2.9.4,5.9.6,8.8.8,1,.1,1.5-.4,1.8-1.4,1.4-4.8,2.9-9.6,4.4-14.4.5-1.8.7-1.9,2.4-1.9h6.3V519.1Z" transform="translate(-595.7 -201.4)"/></svg>