<svg xmlns="http://www.w3.org/2000/svg" viewBox="0 0 163.8 92.7"><path d="M608.8,410.9a18.9,18.9,0,0,1-7.2-2.6c-4.7-3.1-7.7-7.4-8-13.2-.4-8.9-.1-17.9-.2-26.8,0-2.6,0-5.2.1-7.7a11.4,11.4,0,0,1,3.2-7.3c5.4-5.5,10.8-10.9,16.3-16.3,2.3-2.2,5.2-3.1,8.3-3.6a38.4,38.4,0,0,1,5.9-.2h49a27.4,27.4,0,0,1,14.6,4,22,22,0,0,1,3.7,3l11.3,11.3a15.1,15.1,0,0,1,4.7,10.9c.1,10.8.1,21.6,0,32.5-.1,7.5-6.8,14.8-14.3,15.9l-1.1.2Zm.3-29.3c0,5.9,0,11.8-.1,17.7,0,.9.1,1.5,1.2,1.5,4.7-.1,9.4.2,14.1-.2,2.9-.3,5.7-1.1,7.5-3.7s2.2-6.3,1.9-9.8-2.1-4.9-4.6-6.3c-.7-.4-.9-.6,0-1a6.9,6.9,0,0,0,4.1-5.7c.4-3.3.2-6.6-2.7-9a12.5,12.5,0,0,0-7.7-2.5H610.5c-1.1,0-1.5.4-1.5,1.6C609.1,369.9,609.1,375.8,609.1,381.6Zm77.1-16.7H698c1.9,0,2.5-.8,1.8-2.6a12.5,12.5,0,0,0-3.3-4.9c-3.8-3.9-7.6-7.7-11.5-11.5a9.8,9.8,0,0,0-5.3-2.8,24.9,24.9,0,0,0-6.1-.2c-3.6.2-4.7,1.4-4.7,5V359c0,4,2,5.9,6,5.9Zm-10.1,20.8v6.9a8.2,8.2,0,0,0,5.4,7.7,16.2,16.2,0,0,0,7.9,1.1c5.5-.5,8.4-4.8,8.4-9.8,0-.8-.4-1.1-1.2-1.1H691c-.8,0-1,.3-1,1a4.9,4.9,0,0,1-.9,3.1,2.5,2.5,0,0,1-4.2.1,3.5,3.5,0,0,1-.9-2.3c0-1.2.1-2.4,0-3.5s.4-1.6,1.6-1.6h10.8c1,0,1.4-.4,1.4-1.4s0-4.5-.1-6.7a7.9,7.9,0,0,0-7.2-8.1,21,21,0,0,0-7.5.3c-3.1.8-6.4,3.2-6.7,7S676.2,383.7,676.1,385.7Zm-12,12.3c.4.5.2,1.1.2,1.6s.3,1.2,1.1,1.2,3.4,0,5.1,0,1.1-.3,1.1-1.1V372.9c0-.9-.4-1.2-1.2-1.2a50.5,50.5,0,0,1-5.5,0c-.8,0-1.1.3-1.1,1.2.1,6.2,0,12.4,0,18.6a10.9,10.9,0,0,1-.1,1.8,2.3,2.3,0,0,1-2.4,2,2.1,2.1,0,0,1-1.8-2.4V373.1c0-.8,0-1.4-1-1.4s-4.2.1-6.3,0-.9.3-.9,1v23.6a4.5,4.5,0,0,0,.8,2.7c2.4,3.4,8.2,3.6,10.9.4C663.4,399,663.5,398.3,664.1,398Zm-26.5-16.7h0v18.3c0,.8.2,1.2,1,1.2h6.3c.9,0,1.2-.4,1.2-1.2V363.3c0-1-.5-1.3-1.4-1.3a58.1,58.1,0,0,1-5.9,0c-.9,0-1.2.3-1.2,1.3Z" transform="translate(-546.7 -318.2)"/><path d="M574.4,318.2a56.3,56.3,0,0,1,6.9,1.4,25.2,25.2,0,0,1,11.4,6.6l5.4,5.5c.6.6,1,.6,1.5,0a12.1,12.1,0,0,1,1.6-1.6,2.6,2.6,0,0,1,3.7.1,17.5,17.5,0,0,1,2.4,2.3,2.6,2.6,0,0,1-.1,3.8l-11.8,11.9a2.7,2.7,0,0,1-4,0l-2.1-2.1a2.7,2.7,0,0,1,0-4l1.6-1.8c.3-.3.5-.5.1-.9-2.8-2.6-5-5.8-8.3-7.8a18.9,18.9,0,0,0-17.9-1.2c-.6.3-.9.1-1.2-.4l-4.7-7c-.5-.8-.3-1.2.4-1.6a25,25,0,0,1,9.6-3l.9-.2Z" transform="translate(-546.7 -318.2)"/><path d="M557.5,364.2a10.5,10.5,0,0,1-10.6-8.8,15.5,15.5,0,0,1,1.3-8.5,63.3,63.3,0,0,1,8.1-13.7c.4-.6.7-.8,1.2-.1,3.6,5,7,10.1,8.9,15.9,1.3,4.1.9,8-1.7,11.4A9.3,9.3,0,0,1,557.5,364.2Z" transform="translate(-546.7 -318.2)"/><path d="M617.9,389v-3.8c0-.5.1-1,.8-1s3.4.2,4.9,1.4,1.7,2.9,1.4,4.8a3.5,3.5,0,0,1-3.1,3.3,27.2,27.2,0,0,1-3,.4c-.7,0-1-.4-1-1.1Z" transform="translate(-546.7 -318.2)"/><path d="M617.9,373.4v-2.7q-.1-1.6,1.5-1.5h.5c3.6,0,4.5.9,4.3,4.5a3.5,3.5,0,0,1-2.5,3.3l-1.6.3c-2,.3-2.2.1-2.2-2Z" transform="translate(-546.7 -318.2)"/><path d="M687.2,382.3h-1.1c-2.1,0-2.3-.1-2-2.2s.5-2.9,2-3.5a3.1,3.1,0,0,1,3.7,1.6,5.9,5.9,0,0,1,.5,2.2c.1,1.8,0,1.9-1.7,1.9Z" transform="translate(-546.7 -318.2)"/></svg>