<svg xmlns="http://www.w3.org/2000/svg" viewBox="0 0 174.5 348.2"><path d="M770.2,373.8l-.9-18.4a18.7,18.7,0,0,0-.8-3.2h-1.4l-12.9-.7a10,10,0,0,1-3-.6,2,2,0,0,1-1.1-1.3c-1.1-4.6-2.1-9.2-3.1-13.8-.4-1.5-.2-2,1.3-2.9l10.7-6.2,3.8-2.2-1.6-4.7c-2-5.1-4-10.2-6.1-15.3-.8-1.9-1.6-2.1-3.5-1.6l-10.2,2.5-3.5.8a1.8,1.8,0,0,1-2.5-1c-2.3-4.3-4.8-8.5-7.2-12.7a2,2,0,0,1,.3-2.8l6.4-6.7,5-5.5-.6-1.1c-4.1-5.2-8.1-10.4-12.3-15.6-1.6-2.1-1.7-2-3.8-.7l-12,7c-1.8,1-1.8,1-3.3-.4l-9.8-9.1c-1.8-1.7-1.9-1.8-.8-4.1s2.9-5.9,4.3-8.8,1.7-3.6,2.6-5.6a142.3,142.3,0,0,0-19.7-13.5,21.5,21.5,0,0,1-1.8,2.4c-2.8,3.2-5.7,6.3-8.7,9.5s-2,1.7-4.1.7c-3.9-2-7.9-4.1-12-5.9-1.7-.8-2-1.1-1.7-3.1s.7-4.1,1-6.1l.3-1.6.6-3.8c.2-1.5.3-3,.5-4.4a12.4,12.4,0,0,0-2.2-1.2c-6-1.9-12-4.2-18.2-5.5-1.9-.3-1.9-.4-2.7,1.3l-6.2,12.9-.3.7c-.6,1.1-1,1.2-2.8,1a10.1,10.1,0,0,1-1.7-.3l-4-.7-2.1-.4-7.9-1.1-.9-4.2c-.5-4-1-8-1.6-12-.4-2.1-.6-2.3-2.7-2.3h-9.6v30.5h.1c80-.1,143.8,64.5,143.8,145.4-.1,4.8-.5,9.6-1,14.2a13,13,0,0,1,1,2.5c.3.9-.7,2.7-1.8,3.7a140,140,0,0,1-38.2,76.9c-28.3,29.5-63.3,44.2-103.9,44.5v12.7h6.5a2.2,2.2,0,0,1,2.4,1.8l1.8,6,3.1,10.1c3.3-.3,6.4-.3,9.5-.8s8.1-1.5,12.2-2.2c2.1-.3,2.4-.6,2.4-2.7V530.4c0-3.1-.4-2.6,2.8-3.8s7.5-2.1,11.2-3.4a2.1,2.1,0,0,1,2.8.8l8.2,12.3c1,1.5,1.3,1.7,3,1s5-2,7.4-3.2l12.7-6.3c-.2-1-.4-1.6-.6-2.3l-4.2-13.7c-.6-1.9-.6-1.9,1-3l10.5-7.2c1.3-.9,1.9-.9,3.2.2l9.5,7.6,3.6,2.7c6.3-5.2,12.3-10.3,17.6-16.3-.6-1-1-1.8-1.5-2.5l-7.5-10.8c-1.3-1.9-1.2-2.2.2-3.9,2.6-3.2,5.2-6.3,7.7-9.5,1.1-1.5,1.4-1.7,3.2-1s2.9,1.2,4.4,1.8l11,4.3,1.6-2.3a176.5,176.5,0,0,0,10.7-18.4l-2.7-2.2-8-6.4-2.1-1.7c-1.5-1.3-1.5-1.3-.8-3.2s1.9-4.9,2.9-7.3,1.1-2.9,1.6-4.3,1.1-2.4,3.3-2.2l7.4.5,5.7.6h3.1a147.4,147.4,0,0,0,5.5-23.2l-2.7-1.1-12.7-4.9c-1.9-.8-2-1.2-1.8-3.1q.8-6.3,1.2-12.6c.2-1.9.6-2.4,2.3-2.8l13.8-3.1C770.2,376,770.3,376,770.2,373.8Z" transform="translate(-595.7 -201.4)"/></svg>