<svg xmlns="http://www.w3.org/2000/svg" viewBox="0 0 512 512"><defs><style>.a{fill:#fff}</style></defs><path d="M397,590.8V78.8H909v512ZM742,482c23.9,13.2,49,7.5,74,7.4v7.9c.1,11,4.5,15.6,15.4,15.6h37c11.6,0,15.8-4.3,15.8-16,.2-28.3.5-56.6.4-84.9-.2-25.4-.8-50.9-1.6-76.3a13.9,13.9,0,0,0-4.1-8.6c-6.7-6.4-14.1-12.2-20.9-18.6a13.4,13.4,0,0,1-3.8-7c-.9-5.9-3-10.8-7.7-14.5-2.8-2.3-5.3-4.9-8.6-8.1l5.9-.5c10.8-.7,21.6-1.1,32.4-2.1,7.9-.8,14.1-5,10.2-15.4-2.7-6.9-7.3-12-14.5-13.1-13.9-2.2-28-3.5-42.1-5-1.4-.1-2.9.9-4.4,1.4,1.1,1.5,1.9,3.7,3.4,4.3,5.9,2.4,7.9,7.3,9.1,12.8.3,1.3-.7,2.8-1.1,4.2a22.8,22.8,0,0,1-5.2-1.8c-.8-.5-1.1-2-1.6-3-10.2-22.6-20.6-45.2-35.1-65.4-5.3-7.4-11.8-14-18.2-20.5-1.9-1.9-5.5-2.7-8.4-2.9-7.3-.4-14.6-.1-22.3-.1.5-8.5-5-10.2-10.9-11s-13.6-1.8-20.4-1.8q-61.7-.3-123.5,0a148.6,148.6,0,0,0-19.9,1.8c-6,.7-11.7,2.2-11.3,11-7.8,0-15.1-.3-22.4.1-2.7.1-6.1.9-7.9,2.7-6.4,6.3-13.2,12.6-17.9,20-9.6,15.2-18,31.1-26.6,46.8-3.8,7-6.7,14.5-10.4,21.6-.8,1.4-3.7,1.7-5.7,2.5-.3-1.6-1.1-3.4-.8-4.8,1.2-5.4,3.4-10,9.2-12.2,1.3-.6,2.1-2.6,3.2-4-1.1-.6-2.1-1.7-3.1-1.7-15,.2-30,.8-44.5,5.2-6.5,2-10.8,6.3-13.3,12.6-4.2,10.5,1.9,14.8,10.2,15.7,6.6.7,13.3.9,19.9,1.3l18.4,1.2c-4.1,3.9-7.6,6.7-10.5,10.1s-4.5,5.4-4.7,8.3c-.7,7.2-4.4,11.9-10,15.7-2.4,1.7-4.4,4.1-6.9,5.8-11,7.1-14.5,17.1-14.4,30,.4,50.3.1,100.5.1,150.7,0,8.4,5,13.4,13.4,13.4,13.7.2,27.3.1,41,0,8.9,0,13.7-5,13.8-14.1v-9.4c25.5.6,50.5,5.6,74.4-7.4.7,5.9,4.1,5.5,7.4,5.5H734.3C737.8,487.5,740.7,487.1,742,482Z" class="a" transform="translate(-397 -78.8)"/><path d="M742,482c-1.3,5.1-4.2,5.5-7.7,5.5H571.9c-3.3,0-6.7.4-7.4-5.5-23.9,13-48.9,8-74.4,7.4v9.4c-.1,9.1-4.9,14.1-13.8,14.1-13.7.1-27.3.2-41,0-8.4,0-13.4-5-13.4-13.4,0-50.2.3-100.4-.1-150.7-.1-12.9,3.4-22.9,14.4-30,2.5-1.7,4.5-4.1,6.9-5.8,5.6-3.8,9.3-8.5,10-15.7.2-2.9,2.7-5.9,4.7-8.3s6.4-6.2,10.5-10.1l-18.4-1.2c-6.6-.4-13.3-.6-19.9-1.3-8.3-.9-14.4-5.2-10.2-15.7,2.5-6.3,6.8-10.6,13.3-12.6,14.5-4.4,29.5-5,44.5-5.2,1,0,2,1.1,3.1,1.7-1.1,1.4-1.9,3.4-3.2,4-5.8,2.2-8,6.8-9.2,12.2-.3,1.4.5,3.2.8,4.8,2-.8,4.9-1.1,5.7-2.5,3.7-7.1,6.6-14.6,10.4-21.6,8.6-15.7,17-31.6,26.6-46.8,4.7-7.4,11.5-13.7,17.9-20,1.8-1.8,5.2-2.6,7.9-2.7,7.3-.4,14.6-.1,22.4-.1-.4-8.8,5.3-10.3,11.3-11a148.6,148.6,0,0,1,19.9-1.8q61.8-.3,123.5,0c6.8,0,13.6,1,20.4,1.8s11.4,2.5,10.9,11c7.7,0,15-.3,22.3.1,2.9.2,6.5,1,8.4,2.9,6.4,6.5,12.9,13.1,18.2,20.5,14.5,20.2,24.9,42.8,35.1,65.4.5,1,.8,2.5,1.6,3a22.8,22.8,0,0,0,5.2,1.8c.4-1.4,1.4-2.9,1.1-4.2-1.2-5.5-3.2-10.4-9.1-12.8-1.5-.6-2.3-2.8-3.4-4.3,1.5-.5,3-1.5,4.4-1.4,14.1,1.5,28.2,2.8,42.1,5,7.2,1.1,11.8,6.2,14.5,13.1,3.9,10.4-2.3,14.6-10.2,15.4-10.8,1-21.6,1.4-32.4,2.1l-5.9.5c3.3,3.2,5.8,5.8,8.6,8.1,4.7,3.7,6.8,8.6,7.7,14.5a13.4,13.4,0,0,0,3.8,7c6.8,6.4,14.2,12.2,20.9,18.6a13.9,13.9,0,0,1,4.1,8.6c.8,25.4,1.4,50.9,1.6,76.3.1,28.3-.2,56.6-.4,84.9,0,11.7-4.2,16-15.8,16h-37c-10.9,0-15.3-4.6-15.4-15.6v-7.9C791,489.5,765.9,495.2,742,482Zm76.1-213.3c-1-3-1.5-5.5-2.6-7.7q-16.2-33.6-32.8-67.1c-.7-1.4-3.1-2.4-4.8-2.5-16.3-1.3-32.6-2.6-48.9-3.2-31.8-1.2-63.6-3-95.4-2.5s-63.5,3.6-95.3,4.6c-10.2.3-16,3.4-20.2,13-8.5,19.5-18.3,38.4-27.5,57.6-1.1,2.4-1.6,5.1-2.5,7.8ZM613.7,396.5v-.8c7,0,14,.1,21,0,9.2-.2,14.1-5.2,14.3-14.3q.1-6,0-12c-.3-12.1-4.9-17.1-16.9-17.2-23.8-.1-47.6-.1-71.4.3-4.1.1-8.2,2.2-12.3,3.3-2.2.5-4.6,1.3-6.6.8q-40-10.7-79.9-21.8a31.8,31.8,0,0,0-20,1.2,8.7,8.7,0,0,0-4.7,4.7c-4.3,13.6-4,29.6,16,33.7,17,3.5,34.4,5.7,51.6,8.3a14.6,14.6,0,0,0,12.5-3.7c7.4-6.8,16.1-8.2,25.6-5.9a10.9,10.9,0,0,1,6,3.4c6.7,9,15.5,14.8,26.5,16.3C588.2,394.5,601,395.3,613.7,396.5Zm95.7-44.1v-.2c-12.8,0-25.6-.1-38.4.1-8,.1-13.5,5.7-13.9,13.6-.2,5.6-.3,11.3-.1,16.9.3,7.4,5.4,12.8,12.7,12.7,17.8-.1,35.7-.3,53.4-1.5,11.4-.7,23-3.6,30.1-13.5,5-6.9,11.3-8,18.8-8.4s11.6,4.1,17.1,7c3.3,1.8,7.5,3.9,10.9,3.4,18.2-2.3,36.4-4.5,54.2-8.5,15.6-3.6,21.7-19.8,14.2-34.1-.9-1.6-2.6-3.7-4.2-3.9-6.5-.8-13.5-2.6-19.5-1.1-26,6.5-51.7,14-77.5,21.3a13.7,13.7,0,0,1-11.8-1.5,18.8,18.8,0,0,0-8.5-2.2C734.4,352.3,721.9,352.4,709.4,352.4ZM644.8,476c26.2-.7,50.2-1.2,74.1-2.3,11.3-.5,22.6-1.9,33.8-3.5,7.7-1.1,9.8-5.4,6.3-12.5-2.5-5-6-9.5-8.9-14.4-4.8-7.9-11.7-11.5-21-12a1182.9,1182.9,0,0,0-151.8.2c-4.5.3-10.5.8-13,3.7a150.1,150.1,0,0,0-17.6,25c-2.7,4.7.1,8.6,5.7,9.8a81.2,81.2,0,0,0,14.8,2.1C593.8,473.6,620.4,474.8,644.8,476ZM448.1,403.9c0,4.4-.4,8.6,0,12.7,1.4,12.4,3,24.7,4.7,37,.9,6.7,5,10.6,11.7,11.7l14.8,2.5c17.6,3.3,34.4.7,50.4-7.1,1.8-.8,4-1.7,5-3.2,4.5-7.3,8.7-14.8,12.9-22.4,1.4-2.4.3-3.7-2.3-4.1l-4.4-.8c-19.2-3-38.4-6.2-57.7-8.7-8.9-1.1-15.8-4.3-20-12.4C459.9,402.9,454.6,402,448.1,403.9Zm414.2,0c-7-1.9-12.1-.7-15.5,5.4a19.7,19.7,0,0,1-3.9,5.1c-2.6,2.1-5.3,4.7-8.4,5.4-10,2.2-20.2,3.8-30.4,5.4-11.8,1.8-23.7,3.3-35.6,5.1-7.5,1-7.9,1.7-4.3,8.2a182.9,182.9,0,0,0,9.3,15.9,21.8,21.8,0,0,0,7.1,6.4c21.8,11.3,44.4,9.3,67.2,4a11.7,11.7,0,0,0,9-9C861.3,438.8,862.2,421.5,862.3,403.9Z" transform="translate(-397 -78.8)"/><path d="M818.1,268.7h-330c.9-2.7,1.4-5.4,2.5-7.8,9.2-19.2,19-38.1,27.5-57.6,4.2-9.6,10-12.7,20.2-13,31.8-1,63.5-4.2,95.3-4.6s63.6,1.3,95.4,2.5c16.3.6,32.6,1.9,48.9,3.2,1.7.1,4.1,1.1,4.8,2.5q16.6,33.4,32.8,67.1C816.6,263.2,817.1,265.7,818.1,268.7Z" class="a" transform="translate(-397 -78.8)"/><path d="M613.7,396.5c-12.7-1.2-25.5-2-38.2-3.7-11-1.5-19.8-7.3-26.5-16.3a10.9,10.9,0,0,0-6-3.4c-9.5-2.3-18.2-.9-25.6,5.9a14.6,14.6,0,0,1-12.5,3.7c-17.2-2.6-34.6-4.8-51.6-8.3-20-4.1-20.3-20.1-16-33.7A8.7,8.7,0,0,1,442,336a31.8,31.8,0,0,1,20-1.2q39.9,11.1,79.9,21.8c2,.5,4.4-.3,6.6-.8,4.1-1.1,8.2-3.2,12.3-3.3,23.8-.4,47.6-.4,71.4-.3,12,.1,16.6,5.1,16.9,17.2q.1,6,0,12c-.2,9.1-5.1,14.1-14.3,14.3-7,.1-14,0-21,0Zm-15.9-42.8v1.2H564.9a22,22,0,0,0-7.3,1.4c-1.5.7-3.3,2.5-3.6,4.1-1.4,6.9,4.7,20.9,11.1,23.5s15.2,6.5,23.1,7.2c15,1.5,30.2,1.2,45.3,1.7,8.4.3,12.2-2.8,12.3-11.2a99.4,99.4,0,0,0-1.6-17.3c-1.3-6.9-3.1-8.5-10-8.9C622.1,354.6,609.9,354.3,597.8,353.7Z" class="a" transform="translate(-397 -78.8)"/><path d="M709.4,352.4c12.5,0,25-.1,37.5.1a18.8,18.8,0,0,1,8.5,2.2,13.7,13.7,0,0,0,11.8,1.5c25.8-7.3,51.5-14.8,77.5-21.3,6-1.5,13,.3,19.5,1.1,1.6.2,3.3,2.3,4.2,3.9,7.5,14.3,1.4,30.5-14.2,34.1-17.8,4-36,6.2-54.2,8.5-3.4.5-7.6-1.6-10.9-3.4-5.5-2.9-10-7.5-17.1-7s-13.8,1.5-18.8,8.4c-7.1,9.9-18.7,12.8-30.1,13.5-17.7,1.2-35.6,1.4-53.4,1.5-7.3.1-12.4-5.3-12.7-12.7-.2-5.6-.1-11.3.1-16.9.4-7.9,5.9-13.5,13.9-13.6,12.8-.2,25.6-.1,38.4-.1Zm-18.6,40.5c13.6-1,27.2-.2,40.6-4.5,11.2-3.7,18.2-10,20.3-21.9,1.4-8,.2-10.7-7.9-11.2-10.8-.8-21.6-1.4-32.4-1.3-13.3.1-26.6.8-39.9,1.4-4.2.1-8.2,1.6-8.9,6.3-1.1,7-2.3,14.1-2.1,21.2s4,10.1,11.4,10Z" class="a" transform="translate(-397 -78.8)"/><path d="M644.8,476c-24.4-1.2-51-2.4-77.6-3.9a81.2,81.2,0,0,1-14.8-2.1c-5.6-1.2-8.4-5.1-5.7-9.8a150.1,150.1,0,0,1,17.6-25c2.5-2.9,8.5-3.4,13-3.7a1182.9,1182.9,0,0,1,151.8-.2c9.3.5,16.2,4.1,21,12,2.9,4.9,6.4,9.4,8.9,14.4,3.5,7.1,1.4,11.4-6.3,12.5-11.2,1.6-22.5,3-33.8,3.5C695,474.8,671,475.3,644.8,476Zm-.9-4.2c29.1-.8,49-1.1,69-2.1,13.1-.6,26.2-2.3,39.3-3.5,3.9-.4,4.9-2.8,3.3-5.9s-5.1-8.2-7.4-12.4c-4.8-8.8-12.1-12.1-22-12.6a1230.2,1230.2,0,0,0-139.8-.2c-20.6,1.2-20.6,1.2-31.9,18.6-6.7,10.3-5.9,12.6,6.3,13.4C591.4,469.1,622.2,470.6,643.9,471.8Z" class="a" transform="translate(-397 -78.8)"/><path d="M448.1,403.9c6.5-1.9,11.8-1,15.1,5.2,4.2,8.1,11.1,11.3,20,12.4,19.3,2.5,38.5,5.7,57.7,8.7l4.4.8c2.6.4,3.7,1.7,2.3,4.1-4.2,7.6-8.4,15.1-12.9,22.4-1,1.5-3.2,2.4-5,3.2-16,7.8-32.8,10.4-50.4,7.1l-14.8-2.5c-6.7-1.1-10.8-5-11.7-11.7-1.7-12.3-3.3-24.6-4.7-37C447.7,412.5,448.1,408.3,448.1,403.9Zm3.9,2.6c.4,17,1.4,32.5,5.3,47.8a8.3,8.3,0,0,0,7.2,6.7l16.7,2.8c16.1,3,31.5.3,46.2-6.6,1.6-.8,3.5-1.6,4.4-3,3.9-6.1,7.4-12.5,11.3-19.2l-3.9-.8c-17.8-2.6-35.6-5.6-53.4-7.9-11.4-1.4-21.4-4.5-26.9-15.8a2.4,2.4,0,0,0-.9-1.1Z" class="a" transform="translate(-397 -78.8)"/><path d="M862.3,403.9c-.1,17.6-1,34.9-5.5,51.9a11.7,11.7,0,0,1-9,9c-22.8,5.3-45.4,7.3-67.2-4a21.8,21.8,0,0,1-7.1-6.4,182.9,182.9,0,0,1-9.3-15.9c-3.6-6.5-3.2-7.2,4.3-8.2,11.9-1.8,23.8-3.3,35.6-5.1,10.2-1.6,20.4-3.2,30.4-5.4,3.1-.7,5.8-3.3,8.4-5.4a19.7,19.7,0,0,0,3.9-5.1C850.2,403.2,855.3,402,862.3,403.9Zm-3.1,4.3c-5.8-2.1-7.4,1.2-9,3.8-4.5,7.3-10.1,12.1-19.2,13.2-13.4,1.5-26.7,4.1-40,6.1l-24,3.5c3.3,5.8,5.8,11.1,9.2,15.7a23.8,23.8,0,0,0,8.2,7.3c19.5,9.9,39.7,7.6,60.1,3.5,5.1-1,8.1-3.7,8.8-8.8C855.3,437.8,857.2,423,859.2,408.2Z" class="a" transform="translate(-397 -78.8)"/><path d="M597.8,353.7c12.1.6,24.3.9,36.4,1.7,6.9.4,8.7,2,10,8.9a99.4,99.4,0,0,1,1.6,17.3c-.1,8.4-3.9,11.5-12.3,11.2-15.1-.5-30.3-.2-45.3-1.7-7.9-.7-15.7-4-23.1-7.2s-12.5-16.6-11.1-23.5c.3-1.6,2.1-3.4,3.6-4.1a22,22,0,0,1,7.3-1.4h32.9Z" transform="translate(-397 -78.8)"/><path d="M690.8,392.9H671.9c-7.4.1-11.3-2.6-11.4-10s1-14.2,2.1-21.2c.7-4.7,4.7-6.2,8.9-6.3,13.3-.6,26.6-1.3,39.9-1.4,10.8-.1,21.6.5,32.4,1.3,8.1.5,9.3,3.2,7.9,11.2-2.1,11.9-9.1,18.2-20.3,21.9C718,392.7,704.4,391.9,690.8,392.9Z" transform="translate(-397 -78.8)"/><path d="M643.9,471.8c-21.7-1.2-52.5-2.7-83.2-4.7-12.2-.8-13-3.1-6.3-13.4,11.3-17.4,11.3-17.4,31.9-18.6a1230.2,1230.2,0,0,1,139.8.2c9.9.5,17.2,3.8,22,12.6,2.3,4.2,5.2,8.1,7.4,12.4s.6,5.5-3.3,5.9c-13.1,1.2-26.2,2.9-39.3,3.5C692.9,470.7,673,471,643.9,471.8Z" transform="translate(-397 -78.8)"/><path d="M452,406.5l6,2.9a2.4,2.4,0,0,1,.9,1.1c5.5,11.3,15.5,14.4,26.9,15.8,17.8,2.3,35.6,5.3,53.4,7.9l3.9.8c-3.9,6.7-7.4,13.1-11.3,19.2-.9,1.4-2.8,2.2-4.4,3-14.7,6.9-30.1,9.6-46.2,6.6L464.5,461a8.3,8.3,0,0,1-7.2-6.7C453.4,439,452.4,423.5,452,406.5Z" transform="translate(-397 -78.8)"/><path d="M859.2,408.2c-2,14.8-3.9,29.6-5.9,44.3-.7,5.1-3.7,7.8-8.8,8.8-20.4,4.1-40.6,6.4-60.1-3.5a23.8,23.8,0,0,1-8.2-7.3c-3.4-4.6-5.9-9.9-9.2-15.7l24-3.5c13.3-2,26.6-4.6,40-6.1,9.1-1.1,14.7-5.9,19.2-13.2C851.8,409.4,853.4,406.1,859.2,408.2Z" transform="translate(-397 -78.8)"/></svg>